<?xml version="1.0" encoding="UTF-8"?>
<svg width="16px" height="16px" viewBox="0 0 16 16" version="1.1" xmlns="http://www.w3.org/2000/svg" xmlns:xlink="http://www.w3.org/1999/xlink">
    <!-- Generator: Sketch 58 (84663) - https://sketch.com -->
    <title>Icon / BankNote</title>
    <desc>Created with Sketch.</desc>
    <g id="Facility-zone---Ready-for-coding" stroke="none" stroke-width="1" fill="none" fill-rule="evenodd">
        <g id="facility-zone-tuotempo-advantadges" transform="translate(-970.000000, -2148.000000)" fill="#59CC79">
            <g id="Value-proposition" transform="translate(250.000000, 1812.000000)">
                <g id="Text" transform="translate(698.000000, 0.000000)">
                    <g id="Item-2" transform="translate(2.000000, 334.000000)">
                        <g id="Icon-/-BankNote" transform="translate(20.000000, 1.666795)">
                            <path d="M1.23076923,1 C1.15084998,1.0002672 1.07114675,1.00831803 0.992788431,1.02403846 C0.986270154,1.025348 0.980040492,1.02743194 0.973557662,1.02884615 C0.406378661,1.15005355 0.000786849651,1.6507842 0,2.23076923 L0,9.61538462 C0.000267195271,9.69530391 0.00831802534,9.77500718 0.0240384615,9.85336554 C0.025348,9.85988369 0.0274319385,9.86611323 0.0288461538,9.87259631 C0.150053605,10.4397753 0.650784239,10.845367 1.23076923,10.8461538 L14.7692308,10.8461538 C14.8491501,10.8458868 14.9288533,10.837836 15.0072117,10.8221157 C15.0137298,10.8208062 15.0199594,10.8187218 15.0264425,10.8173077 C15.5936214,10.6961002 15.9992132,10.1953696 16,9.61538462 L16,2.23076923 C15.9997329,2.15084999 15.9916822,2.07114676 15.9759618,1.99278843 C15.9746523,1.98627015 15.972568,1.98004049 15.9711538,1.97355766 C15.8499464,1.40637866 15.3492158,1.00078685 14.7692308,1 L1.23076923,1 Z M2.46153846,2.23076923 L13.5384615,2.23076923 C13.5384615,2.91050431 14.0894957,3.46153846 14.7692308,3.46153846 L14.7692308,8.38461538 C14.0894957,8.38461538 13.5384615,8.93564954 13.5384615,9.61538462 L2.46153846,9.61538462 C2.46153846,8.93564954 1.91050431,8.38461538 1.23076923,8.38461538 L1.23076923,3.46153846 C1.91050431,3.46153846 2.46153846,2.91050431 2.46153846,2.23076923 Z M8,3.46153846 C6.64061538,3.46153846 5.53846154,4.70153846 5.53846154,6.23076923 C5.53846154,7.10584615 5.90625969,7.87692308 6.469952,8.38461538 L9.530048,8.38461538 C10.0937403,7.87692308 10.4615385,7.10584615 10.4615385,6.23076923 C10.4615385,4.70153846 9.35938462,3.46153846 8,3.46153846 Z M3.07692308,5.30769231 C2.73705554,5.30769231 2.46153846,5.58320938 2.46153846,5.92307692 C2.46153846,6.26294446 2.73705554,6.53846154 3.07692308,6.53846154 C3.41679062,6.53846154 3.69230769,6.26294446 3.69230769,5.92307692 C3.69230769,5.58320938 3.41679062,5.30769231 3.07692308,5.30769231 Z M12.9230769,5.30769231 C12.5832094,5.30769231 12.3076923,5.58320938 12.3076923,5.92307692 C12.3076923,6.26294446 12.5832094,6.53846154 12.9230769,6.53846154 C13.2629445,6.53846154 13.5384615,6.26294446 13.5384615,5.92307692 C13.5384615,5.58320938 13.2629445,5.30769231 12.9230769,5.30769231 Z M14.7596154,12.0685017 C14.7298033,12.0691557 14.7000776,12.0719676 14.6706732,12.0769231 L14.1538462,12.0769231 L14.1538462,12.6923077 L14.1538462,13.3076923 C13.6377151,13.3076923 13.1973249,13.6254455 13.0144234,14.0757212 C12.4263791,13.8567317 11.6905188,13.5981434 10.7379809,13.3305286 C8.50253846,12.7024855 5.29388554,12.0769231 1.23076923,12.0769231 C1.00883944,12.0737844 0.802411468,12.1903848 0.690530633,12.3820756 C0.578649798,12.5737664 0.578649798,12.810849 0.690530633,13.0025398 C0.802411468,13.1942306 1.00883944,13.3108309 1.23076923,13.3076923 C5.16765292,13.3076923 8.25972123,13.9128991 10.405048,14.5156252 C11.4777114,14.8169877 12.3122529,15.1173114 12.9026443,15.3437502 C13.19784,15.4569692 13.4316825,15.5515212 13.6105772,15.6213945 C13.700024,15.6563298 13.7741742,15.6848289 13.8461538,15.7091348 C13.9093988,15.7304905 13.9524394,15.7574025 14.1033655,15.7644234 C14.120512,15.7659711 14.1365175,15.7752406 14.1538462,15.7752406 C14.8160812,15.7752406 15.345736,15.2516874 15.3786055,14.6009612 C15.3826418,14.5722925 15.3846158,14.5433748 15.3846158,14.5144234 L15.3846158,13.3076923 L15.3846158,12.6923077 L15.3846158,12.0769231 L14.8641828,12.0769231 C14.82963,12.0711476 14.7946471,12.0683329 14.7596154,12.0685017 Z" id="BankNote"></path>
                        </g>
                    </g>
                </g>
            </g>
        </g>
    </g>
</svg>