<?xml version="1.0" encoding="UTF-8"?>
<svg width="30px" height="29px" viewBox="0 0 30 29" version="1.1" xmlns="http://www.w3.org/2000/svg" xmlns:xlink="http://www.w3.org/1999/xlink">
    <!-- Generator: Sketch 57.1 (83088) - https://sketch.com -->
    <title>Icon / BankNote</title>
    <desc>Created with Sketch.</desc>
    <g id="Facility-zone---Ready-for-coding" stroke="none" stroke-width="1" fill="none" fill-rule="evenodd">
        <g id="facility-zone-tuotempo-advantadges" transform="translate(-265.000000, -1322.000000)" fill="#59CC79">
            <g id="Advantages" transform="translate(250.000000, 1213.000000)">
                <g id="Advantages-1" transform="translate(0.000000, 93.000000)">
                    <g id="Icon-/-BankNote" transform="translate(15.000000, 15.000000)">
                        <path d="M2.30769231,1.875 C2.15784371,1.87550101 2.00840016,1.89059631 1.86147831,1.92007212 C1.84925654,1.9225275 1.83757592,1.92643488 1.82542062,1.92908654 C0.761959989,2.15635042 0.0014753431,3.09522038 0,4.18269231 L0,18.0288462 C0.000500991133,18.1786948 0.0155962975,18.3281385 0.0450721154,18.4750604 C0.0475275,18.4872819 0.0514348846,18.4989623 0.0540865385,18.5111181 C0.28135051,19.5745786 1.22022045,20.3350631 2.30769231,20.3365385 L27.6923077,20.3365385 C27.8421563,20.3360377 27.9916,20.3209425 28.1385219,20.2914669 C28.1507435,20.2890115 28.1624238,20.2851035 28.1745796,20.2824519 C29.2380401,20.055188 29.9985247,19.116318 30,18.0288462 L30,4.18269231 C29.9994992,4.03284373 29.9844041,3.88340018 29.9549285,3.73647831 C29.9524731,3.72425654 29.948565,3.71257592 29.9459135,3.70042062 C29.7186496,2.63695999 28.7797796,1.87647534 27.6923077,1.875 L2.30769231,1.875 Z M4.61538462,4.18269231 L25.3846154,4.18269231 C25.3846154,5.45719558 26.4178044,6.49038462 27.6923077,6.49038462 L27.6923077,15.7211538 C26.4178044,15.7211538 25.3846154,16.7543429 25.3846154,18.0288462 L4.61538462,18.0288462 C4.61538462,16.7543429 3.58219558,15.7211538 2.30769231,15.7211538 L2.30769231,6.49038462 C3.58219558,6.49038462 4.61538462,5.45719558 4.61538462,4.18269231 Z M15,6.49038462 C12.4511538,6.49038462 10.3846154,8.81538462 10.3846154,11.6826923 C10.3846154,13.3234615 11.0742369,14.7692308 12.13116,15.7211538 L17.86884,15.7211538 C18.9257631,14.7692308 19.6153846,13.3234615 19.6153846,11.6826923 C19.6153846,8.81538462 17.5488462,6.49038462 15,6.49038462 Z M5.76923077,9.95192308 C5.13197913,9.95192308 4.61538462,10.4685176 4.61538462,11.1057692 C4.61538462,11.7430209 5.13197913,12.2596154 5.76923077,12.2596154 C6.4064824,12.2596154 6.92307692,11.7430209 6.92307692,11.1057692 C6.92307692,10.4685176 6.4064824,9.95192308 5.76923077,9.95192308 Z M24.2307692,9.95192308 C23.5935176,9.95192308 23.0769231,10.4685176 23.0769231,11.1057692 C23.0769231,11.7430209 23.5935176,12.2596154 24.2307692,12.2596154 C24.8680209,12.2596154 25.3846154,11.7430209 25.3846154,11.1057692 C25.3846154,10.4685176 24.8680209,9.95192308 24.2307692,9.95192308 Z M27.6742788,22.6284407 C27.6183812,22.6296669 27.5626456,22.6349392 27.5075123,22.6442308 L26.5384615,22.6442308 L26.5384615,23.7980769 L26.5384615,24.9519231 C25.5707158,24.9519231 24.7449842,25.5477104 24.4020438,26.3919773 C23.2994608,25.9813719 21.9197227,25.4965188 20.1337142,24.9947412 C15.9422596,23.8171604 9.92603538,22.6442308 2.30769231,22.6442308 C1.89157394,22.6383458 1.5045215,22.8569715 1.29474494,23.2163917 C1.08496837,23.575812 1.08496837,24.0203418 1.29474494,24.3797621 C1.5045215,24.7391824 1.89157394,24.957808 2.30769231,24.9519231 C9.68934923,24.9519231 15.4869773,26.0866858 19.509465,27.2167973 C21.5207088,27.7818519 23.0854742,28.3449588 24.1924581,28.7695315 C24.74595,28.9818173 25.1844046,29.1591023 25.5198323,29.2901146 C25.687545,29.3556185 25.8265765,29.4090542 25.9615385,29.4546277 C26.0801227,29.4946696 26.1608238,29.5451296 26.4438104,29.5582938 C26.47596,29.5611958 26.5059704,29.5785762 26.5384615,29.5785762 C27.7801523,29.5785762 28.773255,28.5969138 28.8348854,27.3768023 C28.8424533,27.3230485 28.8461547,27.2688277 28.8461547,27.2145438 L28.8461547,24.9519231 L28.8461547,23.7980769 L28.8461547,22.6442308 L27.8703427,22.6442308 C27.8055562,22.6334018 27.7399633,22.6281241 27.6742788,22.6284407 Z" id="BankNote"></path>
                    </g>
                </g>
            </g>
        </g>
    </g>
</svg>