<?xml version="1.0" encoding="UTF-8"?>
<svg width="28px" height="28px" viewBox="0 0 28 28" version="1.1" xmlns="http://www.w3.org/2000/svg" xmlns:xlink="http://www.w3.org/1999/xlink">
    <!-- Generator: Sketch 57.1 (83088) - https://sketch.com -->
    <title>Icon / Chart</title>
    <desc>Created with Sketch.</desc>
    <g id="Facility-zone---Ready-for-coding" stroke="none" stroke-width="1" fill="none" fill-rule="evenodd">
        <g id="facility-zone-tuotempo-advantadges" transform="translate(-866.000000, -1489.000000)" fill="#59CC79">
            <g id="Advantages" transform="translate(250.000000, 1213.000000)">
                <g id="Advantages-4" transform="translate(600.000000, 260.000000)">
                    <g id="Icon-/-Chart" transform="translate(16.000000, 16.000000)">
                        <path d="M25.4545455,0 C24.0487297,0 22.9090909,1.13963882 22.9090909,2.54545455 C22.9091801,2.69042947 22.9216544,2.83513176 22.946378,2.97798302 L18.6931818,6.52272727 C18.4131108,6.418761 18.1169244,6.36490893 17.8181818,6.36363636 C17.3195494,6.36413888 16.8320454,6.51108162 16.4161938,6.78622153 L12.7198158,4.93678971 C12.6383878,3.594369 11.5267054,2.54692705 10.1818182,2.54545455 C8.77600245,2.54545455 7.63636364,3.68509336 7.63636364,5.09090909 C7.63708396,5.14566254 7.63957089,5.20037849 7.64382055,5.25497153 L3.67151985,7.90234327 C3.32155901,7.72841786 2.9362506,7.63740698 2.54545455,7.63636364 C1.13963882,7.63636364 0,8.77600245 0,10.1818182 C0,11.5876339 1.13963882,12.7272727 2.54545455,12.7272727 C3.95127027,12.7272727 5.09090909,11.5876339 5.09090909,10.1818182 C5.09013555,10.1278939 5.08764849,10.0740079 5.08345167,10.0202416 L9.05575236,7.37038349 C9.40571332,7.54430916 9.79102192,7.63532021 10.1818182,7.63636364 C10.6804506,7.63586112 11.1679546,7.48891838 11.5838062,7.21377847 L15.2801842,9.06321055 C15.3616123,10.4056312 16.4732947,11.453073 17.8181818,11.4545455 C19.2239975,11.4545455 20.3636364,10.3149066 20.3636364,8.90909091 C20.3635472,8.7641159 20.3510728,8.61941352 20.3263493,8.47656218 L24.5795455,4.93181818 C24.8596165,5.03578445 25.1558029,5.08963652 25.4545455,5.09090909 C26.8603612,5.09090909 28,3.95127027 28,2.54545455 C28,1.13963882 26.8603612,0 25.4545455,0 Z M24.1818182,10.1818182 C23.4792727,10.1818182 22.9090909,10.752 22.9090909,11.4545455 L22.9090909,28 L28,28 L28,11.4545455 C28,10.752 27.4298182,10.1818182 26.7272727,10.1818182 L24.1818182,10.1818182 Z M8.90909091,12.7272727 C8.20654545,12.7272727 7.63636364,13.2974545 7.63636364,14 L7.63636364,28 L12.7272727,28 L12.7272727,14 C12.7272727,13.2974545 12.1570909,12.7272727 11.4545455,12.7272727 L8.90909091,12.7272727 Z M16.5454545,15.2727273 C15.8429091,15.2727273 15.2727273,15.8429091 15.2727273,16.5454545 L15.2727273,28 L20.3636364,28 L20.3636364,16.5454545 C20.3636364,15.8429091 19.7934545,15.2727273 19.0909091,15.2727273 L16.5454545,15.2727273 Z M1.27272727,17.8181818 C0.570181818,17.8181818 0,18.3883636 0,19.0909091 L0,28 L5.09090909,28 L5.09090909,19.0909091 C5.09090909,18.3883636 4.52072727,17.8181818 3.81818182,17.8181818 L1.27272727,17.8181818 Z" id="Chart"></path>
                    </g>
                </g>
            </g>
        </g>
    </g>
</svg>