<?xml version="1.0" encoding="UTF-8"?>
<svg width="16px" height="13px" viewBox="0 0 16 13" version="1.1" xmlns="http://www.w3.org/2000/svg" xmlns:xlink="http://www.w3.org/1999/xlink">
    <!-- Generator: Sketch 58 (84663) - https://sketch.com -->
    <title>Icon / People</title>
    <desc>Created with Sketch.</desc>
    <g id="Facility-zone---Ready-for-coding" stroke="none" stroke-width="1" fill="none" fill-rule="evenodd">
        <g id="facility-zone-tuotempo-advantadges" transform="translate(-970.000000, -2243.000000)" fill="#59CC79">
            <g id="Value-proposition" transform="translate(250.000000, 1812.000000)">
                <g id="Text" transform="translate(698.000000, 0.000000)">
                    <g id="Item-3" transform="translate(2.000000, 427.000000)">
                        <g id="Icon-/-People" transform="translate(20.000000, 2.000000)">
                            <path d="M3.52083333,2 C3.03336667,2 2.66666667,2.53333333 2.66666667,2.53333333 C-0.125333333,2.53333333 1.41505835,6.98980853 0.59479168,7.6468752 C0.59479168,7.6468752 1.0976,8.26874987 2.66666667,8.26874987 L2.66666667,8.8010416 C2.23306667,9.9306416 0,9.51306667 0,11.6 L4.27916667,11.6 C4.65463333,11.3728 5.86666667,10.7427083 5.86666667,10.7427083 C5.57706667,10.4333749 5.15929168,9.89854987 5.00729168,9.49374987 C4.67449168,9.32681653 4.39306667,9.1306416 4.26666667,8.8010416 L4.26666667,8.26250027 C4.368,8.26250027 4.66680832,8.23909173 4.77187499,8.21562507 C4.53400832,7.84922507 4.33333333,7.01410027 4.33333333,6.5458336 C4.33333333,5.3549 4.84620832,4.37532501 5.6968752,3.76145835 C5.44034187,2.77959168 4.8707,2 3.52083333,2 Z M12.2666667,2 C11.0810667,2 10.3530832,2.81557499 10.1770832,3.88437499 C11.0389499,4.34624165 11.6,5.34196667 11.6,6.5958336 C11.6,6.98783307 11.5085749,7.36502507 11.4093749,7.65729173 C11.4461749,7.80182507 11.4666667,7.963 11.4666667,8.14166667 C11.4666667,9.459 10.1333333,10.7729168 10.1333333,10.7729168 C10.4229333,10.8993168 11.3494581,11.3701333 11.7281248,11.6 L16,11.6 C16,8.8 13.7264,9.6 13.3333333,8.4 L13.3333333,7.6 C13.5104,7.51093333 13.9320832,6.8976832 13.9854165,6.41874987 C14.1240832,6.4080832 14.4,6.06909173 14.4,5.76562507 C14.4,5.46215835 14.3035248,5.33448331 14.2197915,5.28541664 C14.2197915,5.28541664 14.4,4.8848 14.4,4.4 C14.4,3.4288 14.1376,2.53333333 13.3333333,2.53333333 C13.3333333,2.53333333 13.1024,2 12.2666667,2 Z M8,4.13333333 C6.56426667,4.13333333 5.4,4.9981 5.4,6.5458336 C5.4,7.2002336 5.76666667,7.71041653 5.76666667,7.71041653 C5.76666667,7.71041653 5.6,7.79233333 5.6,8.14166667 C5.6,8.8206 6.03645813,8.98333333 6.03645813,8.98333333 C6.09725813,9.52093333 6.93333333,10.3083333 6.93333333,10.3083333 L6.93333333,11.2072917 C6.48426667,12.5544917 3.73333333,11.6666667 3.73333333,14.8 L12.2666667,14.8 C12.2666667,11.656 9.51573333,12.5544917 9.06666667,11.2072917 L9.06666667,10.3083333 C9.06666667,10.3083333 9.90274187,9.52093333 9.96354187,8.98333333 C9.96354187,8.98333333 10.4,8.68193333 10.4,8.14166667 C10.4,7.76726667 10.2333333,7.71041653 10.2333333,7.71041653 C10.2333333,7.71041653 10.5333333,7.1398336 10.5333333,6.5958336 C10.5333333,5.50516667 9.98613333,4.66666667 9.06666667,4.66666667 C9.06666667,4.66666667 8.67626667,4.13333333 8,4.13333333 Z" id="People"></path>
                        </g>
                    </g>
                </g>
            </g>
        </g>
    </g>
</svg>