<?xml version="1.0" encoding="UTF-8"?>
<svg width="23px" height="22px" viewBox="0 0 23 22" version="1.1" xmlns="http://www.w3.org/2000/svg" xmlns:xlink="http://www.w3.org/1999/xlink">
    <!-- Generator: Sketch 57.1 (83088) - https://sketch.com -->
    <title>Shape</title>
    <desc>Created with Sketch.</desc>
    <g id="Facility-zone---Ready-for-coding" stroke="none" stroke-width="1" fill="none" fill-rule="evenodd">
        <g id="facility-zone-tuotempo-advantadges" transform="translate(-869.000000, -1325.000000)" fill="#59CC79">
            <g id="Advantages" transform="translate(250.000000, 1213.000000)">
                <g id="Advantages-2" transform="translate(600.000000, 93.000000)">
                    <path d="M23,19 C20.829,19 19,20.829 19,23 C19,25.171 20.829,27 23,27 C23.3054066,27 23.6009411,26.956923 23.8886719,26.888672 L27,30 L23.8886719,33.111328 C23.6009411,33.043077 23.3054066,33 23,33 C20.829,33 19,34.829 19,37 C19,39.171 20.829,41 23,41 C25.171,41 27,39.171 27,37 C27,36.694593 26.956923,36.399059 26.888672,36.111328 L30,33 L35.535156,38.535156 C36.472156,39.472156 37.744312,40 39.070312,40 L41.279297,40 C41.914297,40 42.232203,39.232203 41.783203,38.783203 L26.888672,23.8886719 C26.956923,23.6009411 27,23.3054066 27,23 C27,20.829 25.171,19 23,19 Z M39.070312,20 C37.744312,20 36.472156,20.5278437 35.535156,21.4648438 L31.414062,25.585938 L34.414062,28.585938 L41.783203,21.2167969 C42.232203,20.7677969 41.914297,20 41.279297,20 L39.070312,20 Z M23,21 C24.067,21 25,21.933 25,23 C25,24.067 24.067,25 23,25 C21.933,25 21,24.067 21,23 C21,21.933 21.933,21 23,21 Z M30,29 C30.552,29 31,29.448 31,30 C31,30.552 30.552,31 30,31 C29.448,31 29,30.552 29,30 C29,29.448 29.448,29 30,29 Z M23,35 C24.067,35 25,35.933 25,37 C25,38.067 24.067,39 23,39 C21.933,39 21,38.067 21,37 C21,35.933 21.933,35 23,35 Z" id="Shape"></path>
                </g>
            </g>
        </g>
    </g>
</svg>