<?xml version="1.0" encoding="UTF-8"?>
<svg width="29px" height="29px" viewBox="0 0 29 29" version="1.1" xmlns="http://www.w3.org/2000/svg" xmlns:xlink="http://www.w3.org/1999/xlink">
    <!-- Generator: Sketch 57.1 (83088) - https://sketch.com -->
    <title>Icon / ThumbUp</title>
    <desc>Created with Sketch.</desc>
    <g id="Facility-zone---Ready-for-coding" stroke="none" stroke-width="1" fill="none" fill-rule="evenodd">
        <g id="facility-zone-tuotempo-advantadges" transform="translate(-267.000000, -1489.000000)" fill="#59CC79">
            <g id="Advantages" transform="translate(250.000000, 1213.000000)">
                <g id="Advantages-3" transform="translate(0.000000, 260.000000)">
                    <g id="Icon-/-ThumbUp" transform="translate(16.000000, 15.000000)">
                        <path d="M13.3333333,1.875 C12.72,1.875 12.2222222,2.37277778 12.2222222,2.98611111 L12.2222222,8.04470489 L9.82638889,12.3936633 C9.6233725,12.0715919 9.26960521,11.8758733 8.88888889,11.875 L2.22222222,11.875 C1.91387586,11.8748722 1.61933955,12.0028707 1.40905178,12.2283847 C1.19876401,12.4538987 1.09163374,12.75665 1.11328122,13.0642356 L2.22439233,28.6197911 C2.26547602,29.2018778 2.74979868,29.6527779 3.33333333,29.6527779 L8.88888889,29.6527779 C9.5025132,29.6527779 9.99993865,29.155291 10,28.5416667 L11.8315978,28.5416667 C12.2265178,29.2130122 12.9305322,29.6527779 13.7261289,29.6527779 L24.4444444,29.6527779 C25.6717439,29.6527779 26.6666667,28.657855 26.6666667,27.4305556 C26.6657991,27.0351003 26.5594195,26.6470399 26.3585067,26.3064233 C27.7902857,26.1783973 28.887863,24.9791578 28.8888889,23.5416667 C28.8877442,22.8621917 28.6375927,22.2067016 28.1857644,21.6992189 C29.2749598,21.296394 29.9986149,20.25852 30,19.0972222 C29.9989762,18.222132 29.5856453,17.3986866 28.8845489,16.875 C29.5856453,16.3513134 29.9989762,15.527868 30,14.6527778 C30,13.9160653 29.7073421,13.2095267 29.1864077,12.6885923 C28.6654733,12.1676579 27.9589347,11.875 27.2222222,11.875 L17.2309022,11.875 C17.5211122,10.5792464 17.7777778,9.19747033 17.7777778,8.54166667 C17.7777778,5.99611111 15.7623089,1.875 14.3945311,1.875 L13.3333333,1.875 Z M3.41579867,14.0972222 L7.77777778,14.0972222 L7.77777778,27.4305556 L4.36848956,27.4305556 L3.41579867,14.0972222 Z" id="ThumbUp"></path>
                    </g>
                </g>
            </g>
        </g>
    </g>
</svg>