<?xml version="1.0" encoding="UTF-8"?>
<svg width="9px" height="16px" viewBox="0 0 9 16" version="1.1" xmlns="http://www.w3.org/2000/svg" xmlns:xlink="http://www.w3.org/1999/xlink">
    <!-- Generator: Sketch 58 (84663) - https://sketch.com -->
    <title>Icon / Thunder</title>
    <desc>Created with Sketch.</desc>
    <g id="Facility-zone---Ready-for-coding" stroke="none" stroke-width="1" fill="none" fill-rule="evenodd">
        <g id="facility-zone-tuotempo-advantadges" transform="translate(-974.000000, -2334.000000)" fill="#59CC79">
            <g id="Value-proposition" transform="translate(250.000000, 1812.000000)">
                <g id="Text" transform="translate(698.000000, 0.000000)">
                    <g id="Item-4" transform="translate(2.000000, 520.000000)">
                        <g id="Icon-/-Thunder" transform="translate(20.000000, 2.000000)">
                            <path d="M6.46153846,0 C6.16303182,0 5.90765805,0.214451266 5.85576923,0.508413477 L4.02163458,8.45072123 L4.02283655,8.45192308 C4.0079189,8.50513762 4.00023764,8.56011919 4,8.61538462 C4,8.95525215 4.27551708,9.23076923 4.61538462,9.23076923 L8,9.23076923 L7.08894215,15.2620191 C7.08084548,15.3023797 7.07681896,15.3434508 7.07692308,15.3846154 C7.07692308,15.7244829 7.35244015,16 7.69230769,16 C7.92018161,15.9996461 8.1292059,15.8733991 8.23557662,15.6718751 L8.23677908,15.6718751 L12.4963945,7.74759631 L12.4903846,7.73677908 C12.563224,7.63567754 12.6153846,7.51864862 12.6153846,7.38461538 C12.6153846,7.04492308 12.3396923,6.76923077 12,6.76923077 L8.61538462,6.76923077 L10.715144,0.867788431 C10.7508145,0.788423782 10.7692489,0.702396857 10.7692308,0.615384615 C10.7692308,0.275517077 10.4937137,0 10.1538462,0 L6.46153846,0 Z" id="Thunder"></path>
                        </g>
                    </g>
                </g>
            </g>
        </g>
    </g>
</svg>