<svg width="163" height="40" viewBox="0 0 163 40" fill="none" xmlns="http://www.w3.org/2000/svg">
<g clip-path="url(#clip0_9840_163791)">
<path d="M45.1305 35.3679C45.069 35.2449 45.019 35.0259 44.9807 34.7109C44.4849 35.2257 43.8932 35.4831 43.2054 35.4831C42.5906 35.4831 42.0853 35.3102 41.6895 34.9644C41.2976 34.6149 41.1016 34.173 41.1016 33.639C41.1016 32.9896 41.3475 32.4863 41.8393 32.1289C42.335 31.7678 43.0305 31.5872 43.9259 31.5872H44.9634V31.0973C44.9634 30.7247 44.8519 30.4288 44.629 30.2098C44.4062 29.987 44.0776 29.8756 43.6434 29.8756C43.263 29.8756 42.9441 29.9716 42.6866 30.1638C42.4292 30.3559 42.3004 30.5883 42.3004 30.861H41.2284C41.2284 30.5498 41.3378 30.2502 41.557 29.9621C41.7798 29.6701 42.0795 29.4395 42.456 29.2705C42.8365 29.1014 43.2534 29.0169 43.7069 29.0169C44.4254 29.0169 44.9883 29.1974 45.3956 29.5586C45.803 29.9159 46.0142 30.4096 46.0296 31.0398V33.9098C46.0296 34.4823 46.1026 34.9376 46.2487 35.2756V35.3679H45.1305ZM43.361 34.5552C43.6953 34.5552 44.0123 34.4688 44.312 34.2959C44.6117 34.123 44.8288 33.8982 44.9634 33.6217V32.3422H44.1276C42.8211 32.3422 42.1679 32.7245 42.1679 33.489C42.1679 33.8234 42.2794 34.0847 42.5022 34.2729C42.7251 34.4612 43.0113 34.5552 43.361 34.5552ZM50.6752 35.3679V26.9767H53.1537C53.8953 26.9767 54.5524 27.1419 55.1249 27.4723C55.7013 27.8027 56.147 28.2715 56.4622 28.8786C56.7772 29.4856 56.9347 30.181 56.9347 30.9648V31.3856C56.9347 32.1808 56.7752 32.8801 56.4564 33.4834C56.1412 34.0866 55.6897 34.5514 55.1019 34.8779C54.5178 35.2045 53.8473 35.3679 53.0903 35.3679H50.6752ZM52.1334 28.1524V34.2038H53.0845C53.8492 34.2038 54.4351 33.9656 54.8425 33.489C55.2537 33.0088 55.4631 32.321 55.4707 31.4258V30.9591C55.4707 30.0484 55.2729 29.353 54.8771 28.8728C54.4813 28.3925 53.9068 28.1524 53.1537 28.1524H52.1334ZM57.9896 32.1924C57.9896 31.5814 58.1106 31.032 58.3527 30.5441C58.5947 30.0523 58.9348 29.6758 59.3728 29.4145C59.8109 29.1494 60.3142 29.0169 60.8829 29.0169C61.7244 29.0169 62.4066 29.2878 62.9291 29.8294C63.4556 30.3712 63.7399 31.0897 63.7822 31.9849L63.7879 32.3134C63.7879 32.9281 63.6687 33.4776 63.4305 33.9617C63.1962 34.4458 62.858 34.8204 62.4161 35.0854C61.9781 35.3506 61.4708 35.4831 60.8945 35.4831C60.0146 35.4831 59.3094 35.1911 58.7792 34.6071C58.2527 34.0192 57.9896 33.2374 57.9896 32.2616V32.1924ZM59.3901 32.3134C59.3901 32.955 59.5226 33.4583 59.7878 33.8234C60.053 34.1845 60.4218 34.365 60.8945 34.365C61.3671 34.365 61.7341 34.1807 61.9954 33.8119C62.2605 33.443 62.393 32.9031 62.393 32.1924C62.393 31.5622 62.2566 31.0627 61.9838 30.6939C61.7149 30.325 61.3479 30.1407 60.8829 30.1407C60.4257 30.1407 60.0626 30.3232 59.7936 30.6881C59.5246 31.0493 59.3901 31.5911 59.3901 32.3134ZM67.5343 34.365C67.884 34.365 68.1741 34.2632 68.4047 34.0596C68.6352 33.856 68.7582 33.6044 68.7736 33.3047H70.0934C70.0781 33.6927 69.957 34.0558 69.7304 34.3939C69.5037 34.7281 69.1963 34.9933 68.8081 35.1892C68.4201 35.3852 68.0012 35.4831 67.5516 35.4831C66.6794 35.4831 65.9877 35.2008 65.4767 34.636C64.9657 34.0711 64.7102 33.2912 64.7102 32.2961V32.152C64.7102 31.203 64.9637 30.4441 65.4709 29.8756C65.9782 29.3031 66.6698 29.0169 67.5459 29.0169C68.2876 29.0169 68.8907 29.2339 69.3557 29.6681C69.8245 30.0985 70.0705 30.6652 70.0934 31.3683H68.7736C68.7582 31.0109 68.6352 30.717 68.4047 30.4865C68.178 30.2559 67.8879 30.1407 67.5343 30.1407C67.081 30.1407 66.7313 30.3059 66.4853 30.6363C66.2395 30.9629 66.1146 31.4604 66.1107 32.1289V32.3537C66.1107 33.0299 66.2317 33.5352 66.4738 33.8694C66.7198 34.1999 67.0732 34.365 67.5343 34.365ZM76.6123 32.3134C76.6123 33.2778 76.3933 34.0481 75.9552 34.6244C75.5172 35.1969 74.9293 35.4831 74.1916 35.4831C73.5076 35.4831 72.9601 35.2583 72.5489 34.8089V37.7653H71.1483V29.1321H72.4394L72.4971 29.7661C72.9082 29.2666 73.4672 29.0169 74.1743 29.0169C74.9351 29.0169 75.5307 29.3012 75.961 29.8698C76.3953 30.4346 76.6123 31.2203 76.6123 32.227V32.3134ZM75.2175 32.1924C75.2175 31.5699 75.0927 31.0763 74.8428 30.7112C74.5969 30.3462 74.2434 30.1638 73.7823 30.1638C73.2098 30.1638 72.7986 30.4 72.5489 30.8727V33.639C72.8025 34.123 73.2175 34.365 73.7938 34.365C74.2396 34.365 74.5873 34.1865 74.837 33.8292C75.0907 33.468 75.2175 32.9223 75.2175 32.1924ZM79.2925 35.3679H77.8919V26.5156H79.2925V35.3679ZM84.5491 35.3679C84.4876 35.2488 84.4338 35.0547 84.3877 34.7858C83.942 35.2507 83.3964 35.4831 82.7508 35.4831C82.1245 35.4831 81.6134 35.3045 81.2176 34.9471C80.8218 34.5898 80.624 34.148 80.624 33.6217C80.624 32.9569 80.8699 32.4479 81.3617 32.0943C81.8574 31.737 82.5644 31.5585 83.4829 31.5585H84.3417V31.1492C84.3417 30.8265 84.2513 30.569 84.0707 30.3769C83.8901 30.181 83.6154 30.083 83.2465 30.083C82.9276 30.083 82.6663 30.1638 82.4626 30.325C82.259 30.4826 82.1572 30.6843 82.1572 30.9302H80.7565C80.7565 30.5883 80.8699 30.2694 81.0965 29.9736C81.3233 29.6738 81.6307 29.4395 82.0188 29.2705C82.4108 29.1014 82.8469 29.0169 83.3272 29.0169C84.0573 29.0169 84.6394 29.2013 85.0736 29.5701C85.5079 29.9351 85.7307 30.4499 85.7422 31.1146V33.9271C85.7422 34.488 85.8209 34.9356 85.9785 35.2699V35.3679H84.5491ZM83.0102 34.3594C83.2868 34.3594 83.5462 34.2921 83.7883 34.1576C84.0342 34.0231 84.2187 33.8426 84.3417 33.6159V32.4401H83.5865C83.0679 32.4401 82.6777 32.5305 82.4166 32.7111C82.1552 32.8916 82.0245 33.1471 82.0245 33.4776C82.0245 33.7465 82.1129 33.9617 82.2897 34.123C82.4702 34.2805 82.7104 34.3594 83.0102 34.3594ZM88.5088 29.1321L88.5492 29.8525C89.0103 29.2954 89.6155 29.0169 90.3648 29.0169C91.6636 29.0169 92.3245 29.7603 92.3476 31.2472V35.3679H90.9469V31.3279C90.9469 30.9321 90.8604 30.6401 90.6875 30.4519C90.5185 30.2598 90.2399 30.1638 89.8518 30.1638C89.287 30.1638 88.8662 30.4192 88.5895 30.9302V35.3679H87.1889V29.1321H88.5088ZM95.0796 29.1321L95.1199 29.8525C95.5811 29.2954 96.1862 29.0169 96.9355 29.0169C98.2343 29.0169 98.8952 29.7603 98.9182 31.2472V35.3679H97.5177V31.3279C97.5177 30.9321 97.4312 30.6401 97.2583 30.4519C97.0892 30.2598 96.8106 30.1638 96.4226 30.1638C95.8577 30.1638 95.4369 30.4192 95.1602 30.9302V35.3679H93.7597V29.1321H95.0796ZM103.097 35.4831C102.209 35.4831 101.489 35.2045 100.936 34.6475C100.386 34.0866 100.111 33.3412 100.111 32.4114V32.2385C100.111 31.616 100.23 31.0609 100.469 30.5729C100.711 30.0812 101.049 29.6989 101.483 29.4261C101.917 29.1533 102.402 29.0169 102.936 29.0169C103.785 29.0169 104.44 29.2878 104.901 29.8294C105.366 30.3712 105.599 31.1377 105.599 32.1289V32.6938H101.524C101.566 33.2087 101.737 33.6159 102.036 33.9155C102.34 34.2152 102.72 34.365 103.178 34.365C103.819 34.365 104.342 34.1057 104.745 33.5871L105.501 34.3075C105.251 34.6801 104.917 34.9702 104.498 35.1777C104.083 35.3813 103.616 35.4831 103.097 35.4831ZM102.93 30.1407C102.546 30.1407 102.234 30.2751 101.996 30.5441C101.762 30.813 101.612 31.1876 101.547 31.6679H104.215V31.5641C104.184 31.0955 104.06 30.7419 103.841 30.5038C103.622 30.2617 103.318 30.1407 102.93 30.1407ZM109.956 30.4115C109.771 30.3808 109.581 30.3654 109.385 30.3654C108.744 30.3654 108.311 30.6114 108.088 31.1031V35.3679H106.688V29.1321H108.025L108.06 29.8294C108.398 29.2878 108.867 29.0169 109.466 29.0169C109.666 29.0169 109.831 29.0438 109.962 29.0976L109.956 30.4115ZM116.36 34.6129C116.74 34.6129 117.072 34.4977 117.357 34.2671C117.641 34.0365 117.799 33.7484 117.829 33.4026H118.838C118.819 33.76 118.696 34.1 118.469 34.4227C118.242 34.7454 117.939 35.0029 117.558 35.195C117.182 35.3871 116.782 35.4831 116.36 35.4831C115.51 35.4831 114.834 35.2008 114.331 34.636C113.831 34.0674 113.581 33.2912 113.581 32.3076V32.1289C113.581 31.5219 113.693 30.9821 113.916 30.5096C114.139 30.0369 114.457 29.6701 114.872 29.4088C115.291 29.1475 115.785 29.0169 116.354 29.0169C117.053 29.0169 117.633 29.2262 118.094 29.645C118.559 30.0639 118.807 30.6075 118.838 31.276H117.829C117.799 30.8727 117.645 30.5422 117.368 30.2848C117.095 30.0235 116.757 29.8929 116.354 29.8929C115.812 29.8929 115.391 30.0888 115.092 30.4807C114.796 30.8688 114.648 31.4316 114.648 32.1693V32.371C114.648 33.0896 114.796 33.6427 115.092 34.0309C115.387 34.4189 115.81 34.6129 116.36 34.6129ZM119.754 32.1924C119.754 31.5814 119.873 31.032 120.112 30.5441C120.354 30.0561 120.688 29.6796 121.115 29.4145C121.545 29.1494 122.035 29.0169 122.584 29.0169C123.434 29.0169 124.119 29.3107 124.642 29.8986C125.168 30.4865 125.432 31.2684 125.432 32.2443V32.3191C125.432 32.9262 125.315 33.4718 125.08 33.9559C124.85 34.4361 124.517 34.8107 124.083 35.0798C123.653 35.3487 123.157 35.4831 122.596 35.4831C121.751 35.4831 121.065 35.1892 120.538 34.6014C120.016 34.0136 119.754 33.2355 119.754 32.2672V32.1924ZM120.826 32.3191C120.826 33.0107 120.986 33.5659 121.305 33.9847C121.628 34.4035 122.058 34.6129 122.596 34.6129C123.138 34.6129 123.568 34.4016 123.887 33.979C124.206 33.5525 124.365 32.9569 124.365 32.1924C124.365 31.5085 124.202 30.9552 123.875 30.5325C123.553 30.1061 123.122 29.8929 122.584 29.8929C122.058 29.8929 121.633 30.1022 121.311 30.521C120.988 30.9399 120.826 31.5392 120.826 32.3191ZM127.772 29.1321L127.801 29.8238C128.258 29.2858 128.875 29.0169 129.651 29.0169C130.523 29.0169 131.117 29.3511 131.432 30.0196C131.64 29.72 131.908 29.4779 132.238 29.2934C132.573 29.109 132.968 29.0169 133.42 29.0169C134.788 29.0169 135.484 29.741 135.507 31.1896V35.3679H134.44V31.2529C134.44 30.8072 134.339 30.475 134.135 30.2559C133.931 30.033 133.59 29.9217 133.109 29.9217C132.713 29.9217 132.384 30.0408 132.124 30.279C131.862 30.5133 131.711 30.8303 131.668 31.2299V35.3679H130.596V31.2818C130.596 30.375 130.152 29.9217 129.265 29.9217C128.565 29.9217 128.087 30.2195 127.829 30.815V35.3679H126.763V29.1321H127.772ZM142.389 32.3191C142.389 33.2681 142.172 34.0328 141.737 34.6129C141.304 35.193 140.715 35.4831 139.973 35.4831C139.217 35.4831 138.621 35.243 138.187 34.7627V37.7653H137.12V29.1321H138.095L138.146 29.8238C138.581 29.2858 139.184 29.0169 139.957 29.0169C140.706 29.0169 141.297 29.2992 141.732 29.864C142.17 30.4288 142.389 31.2146 142.389 32.2212V32.3191ZM141.322 32.1981C141.322 31.495 141.172 30.9399 140.873 30.5325C140.574 30.1253 140.162 29.9217 139.639 29.9217C138.994 29.9217 138.51 30.2079 138.187 30.7804V33.76C138.506 34.3285 138.994 34.6129 139.651 34.6129C140.162 34.6129 140.567 34.4112 140.868 34.0078C141.171 33.6005 141.322 32.9973 141.322 32.1981ZM147.599 35.3679C147.538 35.2449 147.488 35.0259 147.449 34.7109C146.954 35.2257 146.363 35.4831 145.675 35.4831C145.059 35.4831 144.555 35.3102 144.158 34.9644C143.766 34.6149 143.57 34.173 143.57 33.639C143.57 32.9896 143.816 32.4863 144.308 32.1289C144.804 31.7678 145.499 31.5872 146.395 31.5872H147.432V31.0973C147.432 30.7247 147.321 30.4288 147.098 30.2098C146.875 29.987 146.547 29.8756 146.112 29.8756C145.731 29.8756 145.413 29.9716 145.156 30.1638C144.898 30.3559 144.769 30.5883 144.769 30.861H143.698C143.698 30.5498 143.806 30.2502 144.025 29.9621C144.249 29.6701 144.548 29.4395 144.925 29.2705C145.306 29.1014 145.722 29.0169 146.175 29.0169C146.894 29.0169 147.457 29.1974 147.865 29.5586C148.272 29.9159 148.483 30.4096 148.498 31.0398V33.9098C148.498 34.4823 148.572 34.9376 148.718 35.2756V35.3679H147.599ZM145.83 34.5552C146.164 34.5552 146.481 34.4688 146.781 34.2959C147.08 34.123 147.298 33.8982 147.432 33.6217V32.3422H146.596C145.29 32.3422 144.637 32.7245 144.637 33.489C144.637 33.8234 144.748 34.0847 144.971 34.2729C145.193 34.4612 145.48 34.5552 145.83 34.5552ZM151.179 29.1321L151.213 29.9159C151.69 29.3165 152.313 29.0169 153.081 29.0169C154.398 29.0169 155.064 29.7603 155.074 31.2472V35.3679H154.008V31.2414C154.005 30.7919 153.901 30.4596 153.697 30.2444C153.497 30.0293 153.184 29.9217 152.758 29.9217C152.412 29.9217 152.109 30.0138 151.847 30.1983C151.586 30.3827 151.382 30.6248 151.237 30.9245V35.3679H150.169V29.1321H151.179ZM158.724 33.8061L160.176 29.1321H161.318L158.81 36.3303C158.422 37.3678 157.805 37.8863 156.96 37.8863L156.758 37.869L156.36 37.7942V36.9297L156.649 36.9528C157.01 36.9528 157.29 36.8798 157.49 36.7338C157.694 36.5878 157.861 36.3208 157.991 35.9327L158.228 35.2987L156.004 29.1321H157.168L158.724 33.8061Z" fill="#6D9AB4"/>
<path d="M152.745 0C158.722 0 162.735 4.68623 162.735 10.1298C162.735 15.5735 158.667 20.3155 152.689 20.3155C146.711 20.3155 142.698 15.6301 142.698 10.1858C142.698 4.74235 146.767 0 152.745 0ZM132.175 0.337306C136.609 0.337306 139.527 2.69352 139.527 6.59435C139.527 10.8592 135.992 13.0476 131.811 13.0476H127.039V19.9787H124.823V0.337306H132.175ZM77.5092 0.336999V2.3851H70.9137V19.9787H68.6687V2.3851H62.0742V0.336999H77.5092ZM95.8617 0.337306V2.35684H83.879V9.06352H94.5986V11.0844H83.879V17.959H96.0021V19.9787H81.6616V0.337306H95.8617ZM102.709 0.337306L109.865 11.056L117.022 0.337306H119.266V19.9787H117.049V4.06928L109.893 14.5912H109.781L102.625 4.09702V19.9787H100.464V0.337306H102.709ZM160.118 9.23064H152.401V11.1453H160.118V9.23064ZM132.007 2.38551H127.039V11.0278H131.893C135.149 11.0278 137.282 9.28799 137.282 6.67903C137.282 3.8444 135.178 2.38551 132.007 2.38551Z" fill="#6D9AB4"/>
<path d="M50.15 0C56.1264 0 60.1401 4.68623 60.1401 10.1298C60.1401 15.5735 56.0716 20.3155 50.0941 20.3155C44.1163 20.3155 40.1035 15.6301 40.1035 10.1858C40.1035 4.74235 44.1726 0 50.15 0ZM21.5819 0.336588V11.6167C21.5819 15.8541 23.8277 18.2396 27.5872 18.2396C31.2082 18.2396 33.5092 16.0503 33.5092 11.7577V0.336588H35.726V11.5885C35.726 17.3133 32.4428 20.2877 27.5317 20.2877C22.6766 20.2877 19.3652 17.3133 19.3652 11.7577V0.336588H21.5819ZM15.521 0.336999V2.3851H8.92555V19.9787H6.68049V2.3851H0.0859375V0.336999H15.521ZM51.1857 2.63935H49.2709V10.3544H51.1857V2.63935Z" fill="#59CC79"/>
</g>
<defs>
<clipPath id="clip0_9840_163791">
<rect width="162.985" height="40" fill="white"/>
</clipPath>
</defs>
</svg>
