<svg width="32" height="32" viewBox="0 0 32 32" fill="none" xmlns="http://www.w3.org/2000/svg">
<path fill-rule="evenodd" clip-rule="evenodd" d="M2.66663 16.0001C2.66663 14.4189 2.94187 12.9019 3.44707 11.4946L3.64294 11.6904C4.23626 12.2838 5.03023 12.6303 5.86536 12.664C5.52009 13.7135 5.33329 14.835 5.33329 16.0001C5.33329 21.8911 10.1089 26.6667 16 26.6667C21.891 26.6667 26.6666 21.8911 26.6666 16.0001C26.6666 10.109 21.891 5.33341 16 5.33341C14.8349 5.33341 13.7134 5.52021 12.6639 5.86548C12.6302 5.03035 12.2836 4.23638 11.6903 3.64306L11.4944 3.44719C12.9018 2.942 14.4187 2.66675 16 2.66675C23.3638 2.66675 29.3333 8.63628 29.3333 16.0001C29.3333 23.3639 23.3638 29.3334 16 29.3334C8.63616 29.3334 2.66663 23.3639 2.66663 16.0001ZM7.99996 16.0001C7.99996 15.0199 8.17624 14.0809 8.49883 13.213L10.6986 15.4128C10.6775 15.6056 10.6666 15.8016 10.6666 16.0001C10.6666 18.9456 13.0544 21.3334 16 21.3334C18.9455 21.3334 21.3333 18.9456 21.3333 16.0001C21.3333 13.0546 18.9455 10.6667 16 10.6667C15.8015 10.6667 15.6055 10.6776 15.4126 10.6987L13.2129 8.49895C14.0807 8.17636 15.0198 8.00008 16 8.00008C20.4182 8.00008 24 11.5818 24 16.0001C24 20.4184 20.4182 24.0001 16 24.0001C11.5817 24.0001 7.99996 20.4184 7.99996 16.0001ZM4.94277 3.05727C4.42207 2.53657 3.57785 2.53657 3.05715 3.05727C2.53645 3.57797 2.53645 4.42219 3.05715 4.94289L4.1197 6.00544C3.73975 5.97138 3.34798 6.09977 3.05715 6.39061C2.53645 6.9113 2.53645 7.75553 3.05715 8.27622L5.05715 10.2762C5.3072 10.5263 5.64634 10.6667 5.99996 10.6667H8.78101L15.0572 16.9429C15.5778 17.4636 16.4221 17.4636 16.9428 16.9429C17.4635 16.4222 17.4635 15.578 16.9428 15.0573L10.6666 8.78113V6.00008C10.6666 5.64646 10.5261 5.30732 10.2761 5.05727L8.2761 3.05727C7.7554 2.53657 6.91118 2.53657 6.39048 3.05727C6.09965 3.34811 5.97126 3.73987 6.00531 4.11982L4.94277 3.05727Z" fill="#3D83DF"/>
</svg>
