<svg width="20" height="20" viewBox="0 0 20 20" fill="none" xmlns="http://www.w3.org/2000/svg">
<path d="M10.2171 2.5001C5.97543 2.38343 2.50043 5.79177 2.50043 10.0001H1.00877C0.633766 10.0001 0.450432 10.4501 0.717099 10.7084L3.0421 13.0334C3.20877 13.2001 3.4671 13.2001 3.63377 13.0334L5.95877 10.7084C6.2171 10.4501 6.03377 10.0001 5.65877 10.0001H4.1671C4.1671 6.7501 6.8171 4.1251 10.0838 4.16677C13.1838 4.20843 15.7921 6.81677 15.8338 9.91677C15.8754 13.1751 13.2504 15.8334 10.0004 15.8334C8.95876 15.8334 7.98377 15.5501 7.13377 15.0751C6.80877 14.8918 6.40877 14.9584 6.15043 15.2251C5.7671 15.6084 5.8421 16.2668 6.3171 16.5334C7.40876 17.1418 8.65876 17.5001 10.0004 17.5001C14.2088 17.5001 17.6171 14.0251 17.5004 9.78343C17.3921 5.8751 14.1254 2.60843 10.2171 2.5001Z" fill="#3D83DF"/>
</svg>
