<svg width="32" height="32" viewBox="0 0 32 32" fill="none" xmlns="http://www.w3.org/2000/svg">
<path fill-rule="evenodd" clip-rule="evenodd" d="M26.406 5.87849C26.4094 5.88183 26.4127 5.88516 26.4127 5.89183C26.8394 6.47849 26.7327 7.30516 26.1594 7.73183C25.9504 7.88955 25.7379 8.05076 25.524 8.21306L25.524 8.21309L25.5238 8.21325C25.0144 8.59972 24.497 8.99233 23.9994 9.35849C23.4127 9.79849 22.5994 9.67849 22.1594 9.09183C22.1594 9.08516 22.156 9.08183 22.1527 9.07849C22.1494 9.07516 22.146 9.07183 22.146 9.06516C21.706 8.49183 21.8127 7.66516 22.3994 7.22516C22.8409 6.88554 23.3094 6.53511 23.774 6.18764L23.7741 6.18754L23.7742 6.18745L23.7747 6.1871C24.0395 5.98908 24.3029 5.79203 24.5594 5.59849C25.1327 5.15849 25.9594 5.27849 26.3994 5.86516C26.3994 5.87183 26.4027 5.87516 26.406 5.87849ZM23.9993 16C23.9993 16.7334 24.5993 17.3334 25.3327 17.3334H27.9993C28.7327 17.3334 29.3327 16.7334 29.3327 16C29.3327 15.2667 28.7327 14.6667 27.9993 14.6667H25.3327C24.5993 14.6667 23.9993 15.2667 23.9993 16ZM22.1193 22.9672C21.6793 23.5538 21.7993 24.3672 22.386 24.7938C23.0927 25.3138 23.8393 25.8738 24.546 26.4072C25.1327 26.8472 25.9593 26.7272 26.386 26.1405C26.386 26.1339 26.3893 26.1305 26.3927 26.1272C26.396 26.1238 26.3993 26.1205 26.3993 26.1138C26.8393 25.5272 26.7193 24.7005 26.1327 24.2738C25.4268 23.7411 24.6809 23.1817 23.9882 22.6622L23.986 22.6605C23.3993 22.2205 22.5727 22.3538 22.1327 22.9405C22.1327 22.9538 22.1193 22.9672 22.1193 22.9672ZM10.666 12H5.33268C3.86602 12 2.66602 13.2 2.66602 14.6667V17.3334C2.66602 18.8 3.86602 20 5.33268 20H6.66602V24C6.66602 24.7334 7.26602 25.3334 7.99935 25.3334C8.73268 25.3334 9.33268 24.7334 9.33268 24V20H10.666L17.3327 24V8.00004L10.666 12ZM18.666 11.5332C19.8927 12.6266 20.666 14.2266 20.666 15.9999C20.666 17.7732 19.8927 19.3732 18.666 20.4532V11.5332Z" fill="#3D83DF"/>
</svg>
