<svg width="32" height="32" viewBox="0 0 32 32" fill="none" xmlns="http://www.w3.org/2000/svg">
<path d="M21.3333 15.3734C20.9467 14.9867 20.3067 14.9867 19.92 15.3734L14.12 21.1734L12 19.0534C11.6133 18.6667 10.9733 18.6667 10.5867 19.0534C10.2 19.4401 10.2 20.0801 10.5867 20.4667L13.1733 23.0534C13.6933 23.5734 14.5333 23.5734 15.0533 23.0534L21.32 16.7867C21.72 16.4001 21.72 15.7601 21.3333 15.3734ZM25.3333 5.33341H24V4.00008C24 3.26675 23.4 2.66675 22.6667 2.66675C21.9333 2.66675 21.3333 3.26675 21.3333 4.00008V5.33341H10.6667V4.00008C10.6667 3.26675 10.0667 2.66675 9.33333 2.66675C8.6 2.66675 8 3.26675 8 4.00008V5.33341H6.66667C5.18667 5.33341 4.01333 6.53341 4.01333 8.00008L4 26.6667C4 28.1334 5.18667 29.3334 6.66667 29.3334H25.3333C26.8 29.3334 28 28.1334 28 26.6667V8.00008C28 6.53341 26.8 5.33341 25.3333 5.33341ZM24 26.6667H8C7.26667 26.6667 6.66667 26.0667 6.66667 25.3334V12.0001H25.3333V25.3334C25.3333 26.0667 24.7333 26.6667 24 26.6667Z" fill="#3D83DF"/>
</svg>
