<svg width="32" height="32" viewBox="0 0 32 32" fill="none" xmlns="http://www.w3.org/2000/svg">
<path fill-rule="evenodd" clip-rule="evenodd" d="M30.6667 26.6667H28.2667L28 28H24L23.7333 26.6667H1.33333C0.6 26.6667 0 26.0667 0 25.3334C0 24.6 0.6 24 1.33333 24H5.33333C3.86667 24 2.66667 22.8 2.66667 21.3334V8.00004C2.66667 6.53337 3.86667 5.33337 5.33333 5.33337H26.6667C28.1333 5.33337 29.3333 6.53337 29.3333 8.00004V10.3985C28.8593 10.4719 28.3565 10.196 28.2141 9.67413L27.8254 8.24857C27.4956 7.03936 25.866 6.93423 25.3464 8.0001L25.3333 8.00004H6.66667C5.93333 8.00004 5.33333 8.60004 5.33333 9.33337V20C5.33333 20.7334 5.93333 21.3334 6.66667 21.3334H22.6667C21.9303 21.3334 21.3333 20.7364 21.3333 20C21.3333 19.2637 21.9303 18.6667 22.6667 18.6667H26.6667H29.3333C30.0697 18.6667 30.6667 19.2637 30.6667 20C30.6667 20.7364 30.0697 21.3334 29.3333 21.3334C29.3333 21.6943 29.2607 22.039 29.1293 22.3537L28.8 24H30.6667C31.4 24 32 24.6 32 25.3334C32 26.0667 31.4 26.6667 30.6667 26.6667ZM29.519 16.2192L30.1632 12.3542C30.2796 11.6556 29.3608 11.2922 28.9679 11.8816C28.6315 12.3861 27.8495 12.2049 27.7694 11.6038L27.5826 10.2028C27.4059 8.87728 25.5145 8.80637 25.239 10.1149L24.3892 14.1515C24.2726 14.7053 23.5086 14.7715 23.2984 14.2461C23.0442 13.6104 22.0906 13.8772 22.2032 14.5525L22.5548 16.6623C22.6194 17.0495 22.9544 17.3334 23.347 17.3334H28.2038C28.8556 17.3334 29.4119 16.8622 29.519 16.2192Z" fill="#3D83DF"/>
</svg>
