<svg width="32" height="32" viewBox="0 0 32 32" fill="none" xmlns="http://www.w3.org/2000/svg">
<path fill-rule="evenodd" clip-rule="evenodd" d="M19.76 2.66667H25.3333C26.8 2.66667 28 3.86667 28 5.33333V26.6667C28 28.1333 26.8 29.3333 25.3333 29.3333H6.66667C5.2 29.3333 4 28.1333 4 26.6667V5.33333C4 3.86667 5.2 2.66667 6.66667 2.66667H12.24C12.8 1.12 14.2667 0 16 0C17.7333 0 19.2 1.12 19.76 2.66667ZM17.3333 4C17.3333 3.26667 16.7333 2.66667 16 2.66667C15.2667 2.66667 14.6667 3.26667 14.6667 4C14.6667 4.73333 15.2667 5.33333 16 5.33333C16.7333 5.33333 17.3333 4.73333 17.3333 4ZM6.66667 25.3333C6.66667 26.0667 7.26667 26.6667 8 26.6667H24C24.7333 26.6667 25.3333 26.0667 25.3333 25.3333V6.66667C25.3333 5.93333 24.7333 5.33333 24 5.33333H22.6667V6.66667C22.6667 8.13333 21.4667 9.33333 20 9.33333H12C10.5333 9.33333 9.33333 8.13333 9.33333 6.66667V5.33333H8C7.26667 5.33333 6.66667 5.93333 6.66667 6.66667V25.3333ZM10.6667 17.3333C10.6667 16.597 11.2636 16 12 16H20C20.7364 16 21.3333 16.597 21.3333 17.3333C21.3333 18.0697 20.7364 18.6667 20 18.6667H12C11.2636 18.6667 10.6667 18.0697 10.6667 17.3333ZM10.6667 22.6667C10.6667 21.9303 11.2636 21.3333 12 21.3333H20C20.7364 21.3333 21.3333 21.9303 21.3333 22.6667C21.3333 23.403 20.7364 24 20 24H12C11.2636 24 10.6667 23.403 10.6667 22.6667Z" fill="#3D83DF"/>
</svg>
