<svg width="20" height="20" viewBox="0 0 20 20" fill="none" xmlns="http://www.w3.org/2000/svg">
<path fill-rule="evenodd" clip-rule="evenodd" d="M5 2.50002C5 2.03978 5.3731 1.66669 5.83333 1.66669C6.29357 1.66669 6.66667 2.03978 6.66667 2.50002V3.33335H13.3333V2.50002C13.3333 2.03978 13.7064 1.66669 14.1667 1.66669C14.6269 1.66669 15 2.03978 15 2.50002V3.33335H15.8333C16.7538 3.33335 17.5 4.07955 17.5 5.00002V16.6667C17.5 17.5872 16.7538 18.3334 15.8333 18.3334H4.16667C3.24619 18.3334 2.5 17.5872 2.5 16.6667V5.00002C2.5 4.07955 3.24619 3.33335 4.16667 3.33335H5V2.50002ZM4.16667 7.50002L4.16667 15.8334C4.16667 16.2936 4.53976 16.6667 5 16.6667H15C15.4602 16.6667 15.8333 16.2936 15.8333 15.8334V7.50002H4.16667ZM5.83333 10.4167C5.83333 9.95645 6.20643 9.58335 6.66667 9.58335C7.1269 9.58335 7.5 9.95645 7.5 10.4167C7.5 10.8769 7.1269 11.25 6.66667 11.25C6.20643 11.25 5.83333 10.8769 5.83333 10.4167ZM9.16667 10.4167C9.16667 9.95645 9.53976 9.58335 10 9.58335C10.4602 9.58335 10.8333 9.95645 10.8333 10.4167C10.8333 10.8769 10.4602 11.25 10 11.25C9.53976 11.25 9.16667 10.8769 9.16667 10.4167ZM13.3333 9.58335C12.8731 9.58335 12.5 9.95645 12.5 10.4167C12.5 10.8769 12.8731 11.25 13.3333 11.25C13.7936 11.25 14.1667 10.8769 14.1667 10.4167C14.1667 9.95645 13.7936 9.58335 13.3333 9.58335ZM6.66667 12.5C6.20643 12.5 5.83333 12.8731 5.83333 13.3334C5.83333 13.7936 6.20643 14.1667 6.66667 14.1667C7.1269 14.1667 7.5 13.7936 7.5 13.3334C7.5 12.8731 7.1269 12.5 6.66667 12.5ZM9.16667 13.3334C9.16667 12.8731 9.53976 12.5 10 12.5C10.4602 12.5 10.8333 12.8731 10.8333 13.3334C10.8333 13.7936 10.4602 14.1667 10 14.1667C9.53976 14.1667 9.16667 13.7936 9.16667 13.3334ZM13.3333 12.5C12.8731 12.5 12.5 12.8731 12.5 13.3334C12.5 13.7936 12.8731 14.1667 13.3333 14.1667C13.7936 14.1667 14.1667 13.7936 14.1667 13.3334C14.1667 12.8731 13.7936 12.5 13.3333 12.5Z" fill="#3D83DF"/>
</svg>
