<svg width="20" height="20" viewBox="0 0 20 20" fill="none" xmlns="http://www.w3.org/2000/svg">
<path d="M3.33333 5.83337C3.33333 5.37504 3.70833 5.00004 4.16667 5.00004H17.5C17.9583 5.00004 18.3333 4.62504 18.3333 4.16671C18.3333 3.70837 17.9583 3.33337 17.5 3.33337H3.33333C2.41667 3.33337 1.66667 4.08337 1.66667 5.00004V14.1667H1.25C0.558333 14.1667 0 14.725 0 15.4167C0 16.1084 0.558333 16.6667 1.25 16.6667H11.6667V14.1667H3.33333V5.83337ZM19.1667 6.66671H14.1667C13.7083 6.66671 13.3333 7.04171 13.3333 7.50004V15.8334C13.3333 16.2917 13.7083 16.6667 14.1667 16.6667H19.1667C19.625 16.6667 20 16.2917 20 15.8334V7.50004C20 7.04171 19.625 6.66671 19.1667 6.66671ZM18.3333 14.1667H15V8.33337H18.3333V14.1667Z" fill="#3D83DF"/>
</svg>
