<svg width="32" height="32" viewBox="0 0 32 32" fill="none" xmlns="http://www.w3.org/2000/svg">
<path fill-rule="evenodd" clip-rule="evenodd" d="M10.3999 3.20016C10.8417 3.78926 10.7224 4.625 10.1332 5.06683L4.79992 9.06683C4.21081 9.50865 3.37508 9.38926 2.93325 8.80016C2.49142 8.21106 2.61081 7.37532 3.19992 6.93349L8.53325 2.93349C9.12235 2.49167 9.95809 2.61106 10.3999 3.20016ZM15.9999 26.6667C21.1546 26.6667 25.3333 22.4881 25.3333 17.3334C25.3333 12.1788 21.1546 8.00008 15.9999 8.00008C10.8453 8.00008 6.66658 12.1788 6.66658 17.3334C6.66658 22.4881 10.8453 26.6667 15.9999 26.6667ZM15.9999 29.3334C22.6273 29.3334 27.9999 23.9608 27.9999 17.3334C27.9999 10.706 22.6273 5.33341 15.9999 5.33341C9.3725 5.33341 3.99992 10.706 3.99992 17.3334C3.99992 23.9608 9.3725 29.3334 15.9999 29.3334ZM21.8666 5.06683C21.2775 4.625 21.1581 3.78926 21.5999 3.20016C22.0417 2.61106 22.8775 2.49167 23.4666 2.93349L28.7999 6.93349C29.389 7.37532 29.5084 8.21106 29.0666 8.80016C28.6248 9.38926 27.789 9.50865 27.1999 9.06683L21.8666 5.06683ZM14.6666 11.6667C14.6666 11.1145 15.1143 10.6667 15.6666 10.6667C16.2189 10.6667 16.6666 11.1145 16.6666 11.6667V16.6667H21.6666C22.2189 16.6667 22.6666 17.1145 22.6666 17.6667C22.6666 18.219 22.2189 18.6667 21.6666 18.6667H15.6666C15.1143 18.6667 14.6666 18.219 14.6666 17.6667V11.6667Z" fill="#3D83DF"/>
</svg>
