<svg width="20" height="20" viewBox="0 0 20 20" fill="none" xmlns="http://www.w3.org/2000/svg">
<path d="M9.99967 3.33337C5.83301 3.33337 2.27467 5.92504 0.833008 9.58337C2.27467 13.2417 5.83301 15.8334 9.99967 15.8334C14.1663 15.8334 17.7247 13.2417 19.1663 9.58337C17.7247 5.92504 14.1663 3.33337 9.99967 3.33337ZM9.99967 13.75C7.69967 13.75 5.83301 11.8834 5.83301 9.58337C5.83301 7.28337 7.69967 5.41671 9.99967 5.41671C12.2997 5.41671 14.1663 7.28337 14.1663 9.58337C14.1663 11.8834 12.2997 13.75 9.99967 13.75ZM9.99967 7.08337C8.61634 7.08337 7.49967 8.20004 7.49967 9.58337C7.49967 10.9667 8.61634 12.0834 9.99967 12.0834C11.383 12.0834 12.4997 10.9667 12.4997 9.58337C12.4997 8.20004 11.383 7.08337 9.99967 7.08337Z" fill="#3D83DF"/>
</svg>
