<svg width="32" height="32" viewBox="0 0 32 32" fill="none" xmlns="http://www.w3.org/2000/svg">
<path fill-rule="evenodd" clip-rule="evenodd" d="M24.0002 13.3333V22.6667H25.3335C26.0668 22.6667 26.6668 23.2667 26.6668 24C26.6668 24.7333 26.0668 25.3333 25.3335 25.3333H6.66683C5.9335 25.3333 5.3335 24.7333 5.3335 24C5.3335 23.2667 5.9335 22.6667 6.66683 22.6667H8.00016V13.3333C8.00016 9.61332 10.5468 6.47999 14.0002 5.59999V4.66666C14.0002 3.55999 14.8935 2.66666 16.0002 2.66666C17.1068 2.66666 18.0002 3.55999 18.0002 4.66666V5.59999C21.4535 6.47999 24.0002 9.61332 24.0002 13.3333ZM18.6668 26.6667C18.6668 28.1333 17.4668 29.3333 16.0002 29.3333C14.5335 29.3333 13.3335 28.1333 13.3335 26.6667H18.6668Z" fill="#3D83DF"/>
</svg>
