<svg width="32" height="32" viewBox="0 0 32 32" fill="none" xmlns="http://www.w3.org/2000/svg">
<path d="M17.1734 6.73337C21.4134 7.2667 24.7334 10.5867 25.2667 14.8267C25.3467 15.5067 25.9201 16 26.5867 16C26.6401 16 26.6934 16 26.7467 15.9867C27.4801 15.8934 28.0001 15.2267 27.9067 14.4934C27.2267 9.04003 22.9467 4.76003 17.4934 4.08003C16.7601 4.00003 16.0934 4.52003 16.0134 5.25337C15.9201 5.9867 16.4401 6.65337 17.1734 6.73337ZM17.6801 9.5467C16.9734 9.36003 16.2401 9.7867 16.0534 10.5067C15.8667 11.2267 16.2934 11.9467 17.0134 12.1334C18.4134 12.4934 19.5067 13.5867 19.8801 15C20.0401 15.6 20.5734 16 21.1734 16C21.2801 16 21.4001 15.9867 21.5067 15.96C22.2134 15.7734 22.6401 15.04 22.4667 14.3334C21.8401 11.9734 20.0134 10.1467 17.6801 9.5467ZM25.6401 20.3467L22.2534 19.96C21.4401 19.8667 20.6401 20.1467 20.0667 20.72L17.6134 23.1734C13.8401 21.2534 10.7467 18.1734 8.82672 14.3867L11.2934 11.92C11.8667 11.3467 12.1467 10.5467 12.0534 9.73337L11.6667 6.37337C11.5067 5.0267 10.3734 4.01337 9.01339 4.01337H6.70672C5.20005 4.01337 3.94672 5.2667 4.04005 6.77337C4.74672 18.16 13.8534 27.2534 25.2267 27.96C26.7334 28.0534 27.9867 26.8 27.9867 25.2934V22.9867C28.0001 21.64 26.9867 20.5067 25.6401 20.3467Z" fill="#3D83DF"/>
</svg>
