<svg width="28" height="28" viewBox="0 0 28 28" fill="none" xmlns="http://www.w3.org/2000/svg">
<path fill-rule="evenodd" clip-rule="evenodd" d="M25.0506 1.06435C25.5713 0.543653 26.4155 0.543654 26.9362 1.06435C27.4569 1.58505 27.4569 2.42927 26.9362 2.94997L22.4857 7.40047C22.4461 7.44007 22.4047 7.47665 22.3616 7.51022C23.5756 9.55656 23.3027 12.2402 21.5429 14L20.6001 14.9428C21.1208 15.4635 21.1208 16.3077 20.6001 16.8284C20.0794 17.3491 19.2352 17.3491 18.7145 16.8284L17.6238 15.7377C17.6207 15.7347 17.6176 15.7316 17.6145 15.7285L12.272 10.3859C12.2689 10.3829 12.2659 10.3798 12.2628 10.3767L11.172 9.28591C10.6513 8.76521 10.6513 7.92099 11.172 7.40029C11.6927 6.87959 12.5369 6.87959 13.0576 7.40029L13.0577 7.40033L14.0004 6.45756C15.7603 4.69771 18.444 4.42483 20.4904 5.63894C20.5239 5.5959 20.5605 5.55444 20.6001 5.51485L25.0506 1.06435ZM4.57235 19.6569L5.51517 20.5997L1.06924 25.0456C0.548536 25.5663 0.548536 26.4105 1.06924 26.9312C1.58993 27.4519 2.43415 27.4519 2.95485 26.9312L7.40078 22.4853L8.34359 23.4281C9.38499 24.4695 11.0734 24.4695 12.1148 23.4281L14.9433 20.5997C15.464 21.1204 16.3082 21.1204 16.8289 20.5997C17.3496 20.079 17.3496 19.2348 16.8289 18.7141L14.9433 16.8285L11.172 13.0572L9.2864 11.1716C8.7657 10.6509 7.92148 10.6509 7.40078 11.1716C6.88008 11.6923 6.88008 12.5365 7.40078 13.0572L4.57235 15.8857C3.53096 16.9271 3.53096 18.6155 4.57235 19.6569Z" fill="#3D83DF"/>
</svg>
