<svg width="31" height="26" viewBox="0 0 31 26" fill="none" xmlns="http://www.w3.org/2000/svg">
<path d="M16.493 0.746707L9.10634 8.13337C8.61301 8.62671 8.33301 9.30671 8.33301 10.0134V23.3334C8.33301 24.8 9.53301 26 10.9997 26H22.9997C24.0663 26 25.0263 25.36 25.453 24.3867L29.7997 14.24C30.9197 11.6 28.9863 8.66671 26.1197 8.66671H18.5863L19.853 2.56004C19.9863 1.89337 19.7863 1.21337 19.3063 0.733373C18.5197 -0.03996 17.2663 -0.03996 16.493 0.746707ZM2.99967 26C4.46634 26 5.66634 24.8 5.66634 23.3334V12.6667C5.66634 11.2 4.46634 10 2.99967 10C1.53301 10 0.333008 11.2 0.333008 12.6667V23.3334C0.333008 24.8 1.53301 26 2.99967 26Z" fill="#3D83DF"/>
</svg>
