<svg xmlns="http://www.w3.org/2000/svg" width="30" height="30" viewBox="0 0 30 30">
    <path fill="#3D83DF" fill-rule="evenodd" d="M2.308 1.875c-.15 0-.3.016-.447.045l-.036.01A2.308 2.308 0 0 0 0 4.182v13.846c0 .15.016.3.045.446l.01.036a2.308 2.308 0 0 0 2.253 1.826h25.384c.15-.001.3-.016.447-.046l.036-.009A2.308 2.308 0 0 0 30 18.03V4.183c0-.15-.016-.3-.045-.447l-.01-.036a2.308 2.308 0 0 0-2.253-1.825H2.308zm2.307 2.308h20.77a2.308 2.308 0 0 0 2.307 2.307v9.231a2.308 2.308 0 0 0-2.307 2.308H4.615a2.308 2.308 0 0 0-2.307-2.308v-9.23a2.308 2.308 0 0 0 2.307-2.308zM15 6.49c-2.549 0-4.615 2.325-4.615 5.193 0 1.64.69 3.086 1.746 4.038h5.738c1.057-.952 1.746-2.398 1.746-4.038 0-2.868-2.066-5.193-4.615-5.193zM5.77 9.952a1.154 1.154 0 1 0 0 2.308 1.154 1.154 0 0 0 0-2.308zm18.46 0a1.154 1.154 0 1 0 0 2.308 1.154 1.154 0 0 0 0-2.308zm3.444 12.676a1.156 1.156 0 0 0-.166.016h-.97v2.308c-.967 0-1.793.596-2.136 1.44a52.715 52.715 0 0 0-4.268-1.397c-4.192-1.178-10.208-2.35-17.826-2.35a1.154 1.154 0 1 0 0 2.307c7.381 0 13.179 1.135 17.201 2.265a52.666 52.666 0 0 1 4.683 1.553c.554.212.992.39 1.328.52.168.066.307.12.442.165.118.04.199.09.482.103.032.003.062.02.094.02a2.306 2.306 0 0 0 2.297-2.201c.007-.054.011-.108.011-.162v-4.571h-.976a1.155 1.155 0 0 0-.196-.016z"/>
</svg>
