<?xml version="1.0" encoding="UTF-8"?>
<svg width="31px" height="29px" viewBox="0 0 31 29" version="1.1" xmlns="http://www.w3.org/2000/svg" xmlns:xlink="http://www.w3.org/1999/xlink">
    <!-- Generator: Sketch 52.6 (67491) - http://www.bohemiancoding.com/sketch -->
    <title>bubble-q-and-a-text</title>
    <desc>Created with Sketch.</desc>
    <g id="Home" stroke="none" stroke-width="1" fill="none" fill-rule="evenodd">
        <g id="Feature-docplanner" transform="translate(-266.000000, -1181.000000)" fill="#3D83DF">
            <g id="intuicyjne-zarza" transform="translate(248.000000, 1033.000000)">
                <g id="Feature-1" transform="translate(3.000000, 132.000000)">
                    <path d="M20.1546013,24.3336465 C20.6611239,19.6478531 24.6295611,16 29.45,16 L36.25,16 C41.4138624,16 45.6,20.1861376 45.6,25.35 L45.6,37.2502114 C45.6,37.6541839 45.4561419,38.0449542 45.1942047,38.3524973 C44.5854291,39.0672668 43.5124837,39.1531918 42.7977141,38.5444161 L38.2839472,34.7 L35.8608681,34.7 C34.777744,38.1485409 31.5559955,40.65 27.75,40.65 L21.3180594,40.65 L17.8022859,43.6444161 C17.0875163,44.2531918 16.0145709,44.1672668 15.4057953,43.4524973 C15.1438581,43.1449542 15,42.7541839 15,42.3502114 L15,32.15 C15,28.6433642 17.1234311,25.6326823 20.1546013,24.3336465 Z M20.2731367,27.1501673 C18.6344936,28.2099183 17.55,30.0533106 17.55,32.15 L17.55,40.5097429 L20.379303,38.1 L27.75,38.1 C30.1235366,38.1 32.1724692,36.7102052 33.1274135,34.7 L29.45,34.7 C24.9019098,34.7 21.1122669,31.4527007 20.2731367,27.1501673 Z M43.05,35.4097429 L43.05,25.35 C43.05,21.5944637 40.0055363,18.55 36.25,18.55 L29.45,18.55 C25.6944637,18.55 22.65,21.5944637 22.65,25.35 C22.65,29.1055363 25.6944637,32.15 29.45,32.15 L39.2227036,32.15 L43.05,35.4097429 Z M29.025,26.2 L34.125,26.2 C34.8291631,26.2 35.4,26.7708369 35.4,27.475 C35.4,28.1791631 34.8291631,28.75 34.125,28.75 L29.025,28.75 C28.3208369,28.75 27.75,28.1791631 27.75,27.475 C27.75,26.7708369 28.3208369,26.2 29.025,26.2 Z M29.025,21.95 L36.675,21.95 C37.3791631,21.95 37.95,22.5208369 37.95,23.225 C37.95,23.9291631 37.3791631,24.5 36.675,24.5 L29.025,24.5 C28.3208369,24.5 27.75,23.9291631 27.75,23.225 C27.75,22.5208369 28.3208369,21.95 29.025,21.95 Z" id="bubble-q-and-a-text"></path>
                </g>
            </g>
        </g>
    </g>
</svg>