<svg width="30" height="30" viewBox="0 0 30 30" fill="none" xmlns="http://www.w3.org/2000/svg">
<path d="M15 0C13.355 0 12 1.35499 12 3H8C6.35503 3 5 4.35503 5 6V24C5 25.645 6.35503 27 8 27H22C23.645 27 25 25.645 25 24V6C25 4.35503 23.645 3 22 3H18C18 1.35499 16.645 0 15 0ZM15 2C15.5641 2 16 2.43587 16 3C16 3.56413 15.5641 4 15 4C14.4359 4 14 3.56413 14 3C14 2.43587 14.4359 2 15 2ZM8 5H12V6C12 6.552 12.448 7 13 7H17C17.552 7 18 6.552 18 6V5H22C22.565 5 23 5.43497 23 6V24C23 24.565 22.565 25 22 25H8C7.43497 25 7 24.565 7 24V6C7 5.43497 7.43497 5 8 5ZM14.9844 10.9863C14.7195 10.9905 14.4671 11.0995 14.2825 11.2896C14.098 11.4796 13.9964 11.7351 14 12V15H11C10.8675 14.9981 10.7359 15.0226 10.613 15.072C10.49 15.1214 10.3781 15.1948 10.2837 15.2878C10.1893 15.3809 10.1144 15.4918 10.0632 15.614C10.0121 15.7363 9.98576 15.8675 9.98576 16C9.98576 16.1325 10.0121 16.2637 10.0632 16.386C10.1144 16.5082 10.1893 16.6191 10.2837 16.7122C10.3781 16.8052 10.49 16.8786 10.613 16.928C10.7359 16.9774 10.8675 17.0019 11 17H14V20C13.9981 20.1325 14.0226 20.2641 14.072 20.387C14.1214 20.51 14.1948 20.6219 14.2878 20.7163C14.3809 20.8107 14.4918 20.8856 14.614 20.9368C14.7363 20.9879 14.8675 21.0142 15 21.0142C15.1325 21.0142 15.2637 20.9879 15.386 20.9368C15.5082 20.8856 15.6191 20.8107 15.7122 20.7163C15.8052 20.6219 15.8786 20.51 15.928 20.387C15.9774 20.2641 16.0019 20.1325 16 20V17H19C19.1325 17.0019 19.2641 16.9774 19.387 16.928C19.51 16.8786 19.6219 16.8052 19.7163 16.7122C19.8107 16.6191 19.8856 16.5082 19.9368 16.386C19.9879 16.2637 20.0142 16.1325 20.0142 16C20.0142 15.8675 19.9879 15.7363 19.9368 15.614C19.8856 15.4918 19.8107 15.3809 19.7163 15.2878C19.6219 15.1948 19.51 15.1214 19.387 15.072C19.2641 15.0226 19.1325 14.9981 19 15H16V12C16.0018 11.8662 15.9768 11.7334 15.9264 11.6095C15.876 11.4855 15.8012 11.373 15.7065 11.2784C15.6118 11.1839 15.4991 11.1094 15.375 11.0592C15.251 11.009 15.1182 10.9842 14.9844 10.9863Z" fill="#3D83DF"/>
</svg>
