<?xml version="1.0" encoding="UTF-8"?>
<svg width="25px" height="28px" viewBox="0 0 25 28" version="1.1" xmlns="http://www.w3.org/2000/svg" xmlns:xlink="http://www.w3.org/1999/xlink">
    <!-- Generator: Sketch 53.2 (72643) - https://sketchapp.com -->
    <title>icon 9</title>
    <desc>Created with Sketch.</desc>
    <g id="Home" stroke="none" stroke-width="1" fill="none" fill-rule="evenodd">
        <g id="Feature-docplanner" transform="translate(-673.000000, -3236.000000)" fill="#3D83DF" fill-rule="nonzero">
            <g id="mniej-okienek" transform="translate(250.000000, 3088.000000)">
                <g id="Feature-1" transform="translate(401.000000, 132.000000)">
                    <path d="M24,16 C22.895,16 22,16.895 22,18 L22,40 C22,41.105 22.895,42 24,42 L29,42 C29,43.093063 29.906937,44 31,44 L45,44 C46.093063,44 47,43.093063 47,42 L47,33.251953 C47.001653,33.2187706 47.001653,33.1855264 47,33.152344 L47,32 C47,30.906937 46.093063,30 45,30 L42,30 L42,23.5 C42,23.235 41.895031,22.9809688 41.707031,22.7929688 L35.207031,16.2929688 C35.019031,16.1049688 34.765,16 34.5,16 L24,16 Z M34,17.9042969 L40.095703,24 L35,24 C34.448,24 34,23.552 34,23 L34,17.9042969 Z M31,32 L45,32 L45,32.685547 L39.744141,36.441406 C38.697713,37.188425 37.302287,37.188425 36.255859,36.441406 L31,32.685547 L31,32 Z M45,35.144531 L45,42 L31,42 L31,35.146484 L35.09375,38.068359 C36.829322,39.307341 39.170678,39.307341 40.90625,38.068359 L45,35.144531 Z" id="icon-9"></path>
                </g>
            </g>
        </g>
    </g>
</svg>