<?xml version="1.0" encoding="UTF-8"?>
<svg width="29px" height="30px" viewBox="0 0 29 30" version="1.1" xmlns="http://www.w3.org/2000/svg" xmlns:xlink="http://www.w3.org/1999/xlink">
    <!-- Generator: Sketch 53.2 (72643) - https://sketchapp.com -->
    <title>icon 8</title>
    <desc>Created with Sketch.</desc>
    <g id="Home" stroke="none" stroke-width="1" fill="none" fill-rule="evenodd">
        <g id="Feature-docplanner" transform="translate(-266.000000, -3235.000000)" fill="#3D83DF" fill-rule="nonzero">
            <g id="mniej-okienek" transform="translate(250.000000, 3088.000000)">
                <g id="Feature-1" transform="translate(0.000000, 132.000000)">
                    <path d="M29.3333199,15 C21.9811051,15 16,20.9811051 16,28.3333199 C16,35.6855347 21.9811051,41.6666398 29.3333199,41.6666398 C30.486652,41.6666398 31.5988731,41.5049388 32.6666499,41.2282724 L32.6666499,35.401455 C31.7910952,37.8936747 30.5255409,39.4444198 29.3333199,39.4444198 C27.9133213,39.4444198 26.383254,37.2655331 25.5399215,33.8888698 L32.6666499,33.8888698 L32.6666499,31.6666499 L25.1124041,31.6666499 C24.969071,30.6233176 24.8888799,29.5055409 24.8888799,28.3333199 C24.8888799,27.1510422 24.9908209,26.0508888 25.1362752,24.9999899 L33.5303645,24.9999899 C33.6758188,26.0508888 33.7777598,27.1510422 33.7777598,28.3333199 C33.7777598,28.637764 33.7573776,28.9274682 33.7473776,29.2252456 C34.3418215,28.6763573 35.1288696,28.3333199 35.9999798,28.3333199 C35.9999798,27.1710333 35.9256055,26.0601955 35.7981567,24.9999899 L39.930097,24.9999899 C40.2622,26.0527433 40.4444198,27.1721044 40.4444198,28.3333199 C40.4444198,29.1055413 40.3568154,29.855975 40.2057045,30.5837521 L42.1501469,31.9704695 C42.4790355,30.8126929 42.6666398,29.5955408 42.6666398,28.3333199 C42.6666398,20.9811051 36.6855347,15 29.3333199,15 Z M29.3333199,17.22222 C30.7497996,17.22222 32.2606236,19.4157957 33.1050172,22.7777699 L25.5616226,22.7777699 C26.4060162,19.4157957 27.9168402,17.22222 29.3333199,17.22222 Z M24.9583243,18.1228267 C24.2206473,19.3756065 23.6339755,20.9609984 23.2374059,22.7777699 L19.7174441,22.7777699 C20.9137212,20.7169597 22.7522333,19.0719229 24.9583243,18.1228267 Z M33.7083155,18.1228267 C35.9144066,19.0719229 37.7529181,20.7169597 38.9491957,22.7777699 L35.4292337,22.7777699 C35.0326641,20.9609984 34.4459925,19.3756065 33.7083155,18.1228267 Z M18.7365423,24.9999899 L22.8684826,24.9999899 C22.741034,26.0601955 22.6666599,27.1710333 22.6666599,28.3333199 C22.6666599,29.4955409 22.7418161,30.6055398 22.8684826,31.6666499 L18.7343722,31.6666499 C18.4032615,30.6133176 18.22222,29.4944298 18.22222,28.3333199 C18.22222,27.1721044 18.4044402,26.0527433 18.7365423,24.9999899 Z M36.0173409,30.5425188 C35.697767,30.5357031 35.390735,30.6668346 35.1746855,30.9024116 C34.958636,31.1379887 34.8544955,31.4551935 34.8888698,31.7729864 L34.8888698,41.6666398 C34.8888698,42.2799725 35.3866471,42.7777498 35.9999798,42.7777498 C36.3199795,42.7777498 36.6028781,42.6385143 36.8051001,42.4218479 L36.8116112,42.4240179 L38.9014524,39.9544015 L41.1171624,44.3858215 C41.2946696,44.740986 41.6481889,44.9744558 42.0445267,44.9982675 C42.4408645,45.0220793 42.8197934,44.8326146 43.0385464,44.5012571 C43.2572994,44.1698996 43.2826348,43.7470023 43.1050071,43.391898 L40.8437249,38.8715037 L44.0837394,38.2899076 L44.0859094,38.2703754 C44.545909,38.1359311 44.8888597,37.7266437 44.8888597,37.2221998 C44.8888597,36.8344224 44.6767588,36.5096305 44.3745369,36.3107429 L44.378878,36.2890407 L36.779059,30.8680395 C36.5765977,30.665414 36.3037119,30.548796 36.0173409,30.5425188 Z M19.7261247,33.8888698 L23.2352358,33.8888698 C23.6307909,35.708868 24.2183773,37.2904808 24.9561543,38.5438129 C22.7528231,37.594925 20.9227901,35.9488678 19.7261247,33.8888698 Z" id="icon-8"></path>
                </g>
            </g>
        </g>
    </g>
</svg>