<?xml version="1.0" encoding="UTF-8"?>
<svg width="26px" height="26px" viewBox="0 0 26 26" version="1.1" xmlns="http://www.w3.org/2000/svg" xmlns:xlink="http://www.w3.org/1999/xlink">
    <!-- Generator: Sketch 58 (84663) - https://sketch.com -->
    <title>Shape</title>
    <desc>Created with Sketch.</desc>
    <g id="Facility-zone---Ready-for-coding" stroke="none" stroke-width="1" fill="none" fill-rule="evenodd">
        <g id="facility-zone-wireframe-home" transform="translate(-867.000000, -1675.000000)" fill="#3D83DF">
            <g id="Other-features" transform="translate(250.000000, 1565.000000)">
                <g id="Feature-2" transform="translate(600.000000, 93.000000)">
                    <path d="M19.3636364,17 C18.0577273,17 17,18.0577273 17,19.3636364 L17,40.6363636 C17,41.9422727 18.0577273,43 19.3636364,43 L40.6363636,43 C40.8467273,43 41.0461225,42.9631048 41.2411225,42.9122866 L37.4371452,39.1083094 C37.4347815,39.1059457 37.4325834,39.1014406 37.4302197,39.099077 C36.966947,39.320077 36.4562727,39.4545455 35.9090909,39.4545455 C33.9508182,39.4545455 32.3636364,37.8673636 32.3636364,35.9090909 C32.3636364,33.9508182 33.9508182,32.3636364 35.9090909,32.3636364 C37.8673636,32.3636364 39.4545455,33.9508182 39.4545455,35.9090909 C39.4545455,36.4562727 39.320077,36.966947 39.099077,37.4302197 C39.1014406,37.4325834 39.1059457,37.4347815 39.1083094,37.4371452 L42.9122866,41.2411225 C42.9631048,41.0461225 43,40.8467273 43,40.6363636 L43,19.3636364 C43,18.0577273 41.9422727,17 40.6363636,17 L32.7721945,17 C32.7225581,17.0839091 32.6815821,17.1725824 32.6083094,17.2446732 L27.2901275,22.5628551 C27.2877639,22.5652188 27.2832588,22.5674162 27.2808952,22.5697798 C27.5018952,23.0330525 27.6363636,23.5437273 27.6363636,24.0909091 C27.6363636,26.0491818 26.0491818,27.6363636 24.0909091,27.6363636 C22.1326364,27.6363636 20.5454545,26.0491818 20.5454545,24.0909091 C20.5454545,22.1326364 22.1326364,20.5454545 24.0909091,20.5454545 C24.6380909,20.5454545 25.1487652,20.6799234 25.6120379,20.9009232 C25.6144015,20.8985597 25.6165997,20.8940539 25.6189634,20.8916904 L29.510654,17 L19.3636364,17 Z M35.9090909,20.5454545 C37.8673636,20.5454545 39.4545455,22.1326364 39.4545455,24.0909091 C39.4545455,26.0491818 37.8673636,27.6363636 35.9090909,27.6363636 C35.3619091,27.6363636 34.8512348,27.5018952 34.3879621,27.2808952 C34.3855985,27.2832588 34.3834003,27.2877639 34.3810366,27.2901275 L27.2808952,34.3902702 C27.5018952,34.8523611 27.6363636,35.3630909 27.6363636,35.9090909 C27.6363636,37.8673636 26.0491818,39.4545455 24.0909091,39.4545455 C22.1326364,39.4545455 20.5454545,37.8673636 20.5454545,35.9090909 C20.5454545,33.9508182 22.1326364,32.3636364 24.0909091,32.3636364 C24.6369091,32.3636364 25.1476389,32.4981048 25.6097298,32.7191048 L32.7098725,25.6189634 C32.7122361,25.6165997 32.7167412,25.6144015 32.7191048,25.6120379 C32.4981048,25.1487652 32.3636364,24.6380909 32.3636364,24.0909091 C32.3636364,22.1326364 33.9508182,20.5454545 35.9090909,20.5454545 Z M24.0909091,22.9090909 C23.4382089,22.9090909 22.9090909,23.4382089 22.9090909,24.0909091 C22.9090909,24.7436092 23.4382089,25.2727273 24.0909091,25.2727273 C24.7436092,25.2727273 25.2727273,24.7436092 25.2727273,24.0909091 C25.2727273,23.4382089 24.7436092,22.9090909 24.0909091,22.9090909 Z M35.9090909,22.9090909 C35.2563908,22.9090909 34.7272727,23.4382089 34.7272727,24.0909091 C34.7272727,24.7436092 35.2563908,25.2727273 35.9090909,25.2727273 C36.5617911,25.2727273 37.0909091,24.7436092 37.0909091,24.0909091 C37.0909091,23.4382089 36.5617911,22.9090909 35.9090909,22.9090909 Z M24.0909091,34.7272727 C23.4382089,34.7272727 22.9090909,35.2563908 22.9090909,35.9090909 C22.9090909,36.5617911 23.4382089,37.0909091 24.0909091,37.0909091 C24.7436092,37.0909091 25.2727273,36.5617911 25.2727273,35.9090909 C25.2727273,35.2563908 24.7436092,34.7272727 24.0909091,34.7272727 Z M35.9090909,34.7272727 C35.2563908,34.7272727 34.7272727,35.2563908 34.7272727,35.9090909 C34.7272727,36.5617911 35.2563908,37.0909091 35.9090909,37.0909091 C36.5617911,37.0909091 37.0909091,36.5617911 37.0909091,35.9090909 C37.0909091,35.2563908 36.5617911,34.7272727 35.9090909,34.7272727 Z" id="Shape"></path>
                </g>
            </g>
        </g>
    </g>
</svg>