<?xml version="1.0" encoding="UTF-8"?>
<svg width="27px" height="30px" viewBox="0 0 27 30" version="1.1" xmlns="http://www.w3.org/2000/svg" xmlns:xlink="http://www.w3.org/1999/xlink">
    <!-- Generator: Sketch 58 (84663) - https://sketch.com -->
    <title>Shape</title>
    <desc>Created with Sketch.</desc>
    <g id="Facility-zone---Ready-for-coding" stroke="none" stroke-width="1" fill="none" fill-rule="evenodd">
        <g id="facility-zone-wireframe-home" transform="translate(-267.000000, -1840.000000)" fill="#3D83DF">
            <g id="Other-features" transform="translate(250.000000, 1565.000000)">
                <g id="Feature-3" transform="translate(0.000000, 260.000000)">
                    <path d="M30.4824222,15.0001356 C29.8619767,15.0097097 29.3665219,15.5133624 29.3750185,16.1258626 L29.3750185,17.3253366 C25.5606156,17.8658332 22.6251293,21.0952168 22.6251293,25.0102126 L22.6251293,26.1207563 L28.2500369,26.1207563 C28.2500369,25.5077362 28.7540287,25.0102126 29.3750185,25.0102126 L31.6249815,25.0102126 C32.2459713,25.0102126 32.7499631,25.5077362 32.7499631,26.1207563 L38.3748707,26.1207563 L38.3748707,25.0102126 C38.3748707,21.0952168 35.4393844,17.8658332 31.6249815,17.3253366 L31.6249815,16.1258626 C31.6291456,15.8256823 31.5100346,15.536623 31.2947885,15.3245479 C31.0795424,15.1124729 30.7864964,14.9954472 30.4824222,15.0001356 Z M27.1250554,21.6785813 C27.7460452,21.6785813 28.2500369,22.1761049 28.2500369,22.7891251 C28.2500369,23.4021452 27.7460452,23.8996688 27.1250554,23.8996688 C26.5040656,23.8996688 26.0000739,23.4021452 26.0000739,22.7891251 C26.0000739,22.1761049 26.5040656,21.6785813 27.1250554,21.6785813 Z M33.8749446,21.6785813 C34.4959344,21.6785813 34.9999261,22.1761049 34.9999261,22.7891251 C34.9999261,23.4021452 34.4959344,23.8996688 33.8749446,23.8996688 C33.2539548,23.8996688 32.7499631,23.4021452 32.7499631,22.7891251 C32.7499631,22.1761049 33.2539548,21.6785813 33.8749446,21.6785813 Z M21.5001477,28.3418438 C19.0281877,28.3418438 17.0001086,30.3437833 17.0001086,32.7840188 L17.0001086,36.11565 C16.9944839,36.516152 17.2076404,36.8886788 17.5580694,37.0905828 C17.9084984,37.2924867 18.3419079,37.2924867 18.6923369,37.0905828 C19.0427659,36.8886788 19.2559224,36.516152 19.2501847,36.11565 L19.2501847,32.7840188 C19.2501847,31.5439124 20.243919,30.5629313 21.5001477,30.5629313 L21.5001477,37.2261938 C21.5001477,38.4533446 22.5070062,39.4472813 23.7501108,39.4472813 L37.2498892,39.4472813 C38.4929938,39.4472813 39.4998523,38.4533446 39.4998523,37.2261938 L39.4998523,30.5629313 C40.7560809,30.5629313 41.7498153,31.5439124 41.7498153,32.7840188 L41.7498153,36.11565 C41.7440776,36.516152 41.9572341,36.8886788 42.3076631,37.0905828 C42.6580921,37.2924867 43.0915016,37.2924867 43.4419306,37.0905828 C43.7923596,36.8886788 44.0055161,36.516152 43.9998914,36.11565 L43.9998914,32.7840188 C43.9998914,30.3437833 41.9718124,28.3418438 39.4998523,28.3418438 L21.5001477,28.3418438 Z M27.1250554,41.6683688 L27.1250554,42.7789125 C27.1250554,44.0060633 28.1319139,45 29.3750185,45 L31.6249815,45 C32.8680861,45 33.8749446,44.0060633 33.8749446,42.7789125 L33.8749446,41.6683688 L27.1250554,41.6683688 Z" id="Shape"></path>
                </g>
            </g>
        </g>
    </g>
</svg>