<svg width="24" height="24" viewBox="0 0 24 24" fill="none" xmlns="http://www.w3.org/2000/svg">
<path fill-rule="evenodd" clip-rule="evenodd" d="M12 22C17.5228 22 22 17.5228 22 12C22 6.47715 17.5228 2 12 2C6.47715 2 2 6.47715 2 12C2 17.5228 6.47715 22 12 22ZM7.16393 9.03621V16H9.13115V9.03621H7.16393ZM7 7.11674C7 7.73335 7.5141 8.23348 8.14754 8.23348C8.78164 8.23348 9.29508 7.73335 9.29508 7.11674C9.29508 6.50013 8.78098 6 8.14754 6C7.5141 6 7 6.50013 7 7.11674ZM15.0328 16H17V11.7211C17 8.39554 13.3252 8.51646 12.4098 10.1536V9.03621H10.4426V16H12.4098V12.4523C12.4098 10.4815 15.0328 10.3201 15.0328 12.4523V16Z" fill="#627282"/>
</svg>
