<svg width="226" height="30" viewBox="0 0 226 30" fill="none" xmlns="http://www.w3.org/2000/svg">
<path fill-rule="evenodd" clip-rule="evenodd" d="M1.88005 7.86255L11.8137 10.2059L12.6707 0H18.7611L19.5349 9.22968C16.0404 10.4304 13.9853 11.3896 11.6307 12.8398C9.8924 13.9077 8.31156 15.1575 6.89713 16.5907L0 13.6736L1.88005 7.86255ZM57.9176 4.5L52.0282 19.0981L46.1389 4.5H45.6651H41.922V25.5H45.6603V11.7337L51.2048 25.5H52.8517L58.3914 11.7536L58.3962 25.5H62.1344V4.5H58.3962H57.9176ZM69.0808 6.44213C69.0808 7.51473 68.2129 8.38425 67.1423 8.38425C66.0716 8.38425 65.2037 7.51473 65.2037 6.44213C65.2037 5.36952 66.0716 4.5 67.1423 4.5C68.2129 4.5 69.0808 5.36952 69.0808 6.44213ZM87.8865 25.5V4.5H93.1512C100.487 4.5 103.901 6.70723 103.901 15C103.901 23.2928 100.487 25.5 93.1512 25.5H87.8865ZM122.472 20.5864V6.39657L125.887 6V10.5H129.386V13.275H125.887V20.1724C125.887 22.7905 126.691 23.1007 128.041 23.1007C128.59 23.1007 129.05 22.9967 129.386 22.9183V25.741C128.779 25.8723 127.961 25.95 127.426 25.95C123.518 25.95 122.472 24.0388 122.472 20.5864ZM131.83 6.39657V20.5864C131.83 24.0388 132.876 25.95 136.783 25.95C137.318 25.95 138.137 25.8723 138.743 25.741V22.9183C138.407 22.9967 137.948 23.1007 137.399 23.1007C136.048 23.1007 135.245 22.7905 135.245 20.1724V13.275H138.743V10.5H135.245V6L131.83 6.39657ZM140.439 18.0769V17.9231C140.439 12.9102 142.741 10.05 147.499 10.05C152.227 10.05 154.529 12.9102 154.529 17.9231V18.0769C154.529 23.0898 152.227 25.95 147.499 25.95C142.741 25.95 140.439 23.0898 140.439 18.0769ZM165.831 18.0461V17.9846C165.831 13.3715 168.072 10.05 172.707 10.05C177.005 10.05 179 12.5411 179 17.7693C179 18.3229 178.961 19.087 178.902 19.65H169.413C169.659 21.7628 170.888 23.025 173.411 23.025C175.007 23.025 176.507 22.8754 177.897 22.6931V25.5584C176.335 25.8039 175.009 25.95 173.321 25.95C168.409 25.95 165.831 23.4897 165.831 18.0461ZM169.361 17.1H175.531C175.531 14.7529 174.917 12.9 172.615 12.9C170.221 12.9 169.422 14.8765 169.361 17.1ZM156.85 25.5V10.5H159.807L160.049 12.9151H160.08C160.836 11.8095 162.677 10.3935 164.822 10.275V13.425C161.699 14.0364 160.265 16.1117 160.265 17.9947V25.5H156.85ZM143.957 17.9778C143.957 14.5437 145.073 12.9 147.491 12.9C149.909 12.9 150.994 14.5387 150.994 17.9778C150.994 21.4169 149.909 23.025 147.491 23.025C145.073 23.025 143.957 21.4119 143.957 17.9778ZM106.003 18.0769V17.9231C106.003 12.9102 108.305 10.05 113.063 10.05C117.791 10.05 120.093 12.9102 120.093 17.9231V18.0769C120.093 23.0898 117.791 25.95 113.063 25.95C108.305 25.95 106.003 23.0898 106.003 18.0769ZM109.521 17.9778C109.521 14.5437 110.637 12.9 113.055 12.9C115.473 12.9 116.558 14.5387 116.558 17.9778C116.558 21.4169 115.473 23.025 113.055 23.025C110.637 23.025 109.521 21.4119 109.521 17.9778ZM93.968 7.89614C99.0236 7.89614 99.9801 10.2788 99.9801 15C99.9801 19.7212 99.0236 22.1039 93.968 22.1039H91.6248V7.89614H93.968ZM71.1926 18.0769V17.9231C71.1926 12.9102 73.4949 10.05 78.253 10.05C82.9803 10.05 85.2826 12.9102 85.2826 17.9231V18.0769C85.2826 23.0898 82.9803 25.95 78.253 25.95C73.4949 25.95 71.1926 23.0898 71.1926 18.0769ZM74.7111 17.9778C74.7111 14.5437 75.827 12.9 78.245 12.9C80.663 12.9 81.748 14.5387 81.748 17.9778C81.748 21.4169 80.663 23.025 78.245 23.025C75.827 23.025 74.7111 21.4119 74.7111 17.9778ZM68.8345 10.5L65.4193 10.5217V25.5H68.8345V10.5ZM22.3787 30L17.4374 24.2464C18.1943 22.3873 20.3236 19.7858 22.4955 18.4437L27.3042 26.4146L22.3787 30ZM10.3341 29.9914C14.3944 21.6952 22.1491 15.55 31.4415 13.7163L29.5532 7.88855C18.2793 9.16397 8.68737 16.0096 3.55413 25.6225L10.3341 29.9914Z" fill="#3D83DF"/>
<path d="M187 4.5V25.5014H190.085V17.9609H192.422C197.438 17.9609 200.336 16.1848 200.336 10.8877C200.336 5.6529 197.033 4.5 191.986 4.5H187ZM190.085 7.33551H191.456C193.699 7.33551 194.883 7.36667 195.849 8.02102C196.722 8.6442 197.127 9.54783 197.127 11.0746C197.127 14.8761 194.759 15.1254 192.017 15.1254H190.085V7.33551Z" fill="#627282"/>
<path d="M202.509 10.5V25.5014H205.345V17.4536C205.345 14.4536 208.087 13.0551 210.05 13.0239C210.05 12.5565 210.081 10.6246 210.081 10.1572C207.962 10.2507 206.248 11.3254 205.22 12.6341C205.22 12.6341 205.22 12.6341 204.971 10.5H202.509Z" fill="#627282"/>
<path d="M211.5 17.992C211.5 23.1022 213.806 26 218.449 26C223.122 26 225.428 23.1022 225.428 17.992V17.8674C225.428 12.7572 223.122 9.89058 218.449 9.89058C213.806 9.89058 211.5 12.7884 211.5 17.8986V17.992ZM218.48 12.2899C221.222 12.2899 222.468 14.1283 222.468 17.9609C222.468 21.7623 221.222 23.6007 218.48 23.6007C215.738 23.6007 214.46 21.7623 214.46 17.9609C214.46 14.1283 215.738 12.2899 218.48 12.2899Z" fill="#627282"/>
</svg>
