<?xml version="1.0" encoding="utf-8"?>
<!-- Generator: Adobe Illustrator 15.1.0, SVG Export Plug-In . SVG Version: 6.00 Build 0)  -->
<!DOCTYPE svg PUBLIC "-//W3C//DTD SVG 1.1//EN" "http://www.w3.org/Graphics/SVG/1.1/DTD/svg11.dtd">
<svg version="1.1" xmlns="http://www.w3.org/2000/svg" xmlns:xlink="http://www.w3.org/1999/xlink" x="0px" y="0px" width="24.42px"
	 height="23.993px" viewBox="0 0 24.42 23.993" enable-background="new 0 0 24.42 23.993" xml:space="preserve">
<g id="Warstwa_1" display="none">
	<path display="inline" fill="#FDC505" d="M24.408,9.227c-0.032-0.099-0.121-0.167-0.224-0.173l-8.611-0.493l-3.13-8.037
		c-0.074-0.191-0.392-0.191-0.466,0l-3.13,8.037L0.236,9.054C0.133,9.06,0.044,9.128,0.012,9.227c-0.032,0.098,0,0.205,0.08,0.27
		l6.676,5.461L4.577,23.3c-0.026,0.1,0.011,0.205,0.095,0.266s0.195,0.063,0.282,0.009l7.256-4.663l7.256,4.663
		c0.042,0.025,0.088,0.039,0.135,0.039c0.052,0,0.103-0.016,0.147-0.048c0.083-0.061,0.121-0.166,0.095-0.266l-2.191-8.343
		l6.676-5.461C24.408,9.432,24.439,9.324,24.408,9.227z"/>
</g>
<g id="Warstwa_3" display="none">
	<path display="inline" fill="#497DBF" d="M24.408,9.226c-0.032-0.098-0.121-0.167-0.224-0.172l-8.611-0.493l-3.13-8.038
		c-0.074-0.191-0.392-0.191-0.466,0l-3.13,8.038L0.236,9.054C0.133,9.06,0.044,9.128,0.012,9.226c-0.032,0.098,0,0.206,0.08,0.271
		l6.676,5.461L4.577,23.3c-0.026,0.1,0.011,0.205,0.095,0.266s0.195,0.063,0.282,0.008l7.256-4.663l7.256,4.663
		c0.042,0.026,0.088,0.04,0.135,0.04c0.052,0,0.103-0.016,0.147-0.048c0.083-0.061,0.121-0.166,0.095-0.266l-2.191-8.342
		l6.676-5.461C24.408,9.432,24.439,9.324,24.408,9.226z"/>
</g>
<g id="Warstwa_2">
	<g>
		<g>
			<circle fill="#DCDFE3" cx="12.21" cy="11.996" r="11.996"/>
		</g>
	</g>
	<polygon fill="#FFFFFF" points="17.401,8.219 15.987,6.805 12.21,10.582 8.433,6.805 7.019,8.219 10.796,11.996 7.019,15.773 
		8.433,17.188 12.21,13.41 15.987,17.188 17.401,15.773 13.624,11.996 	"/>
</g>
</svg>
