<svg width="24" height="24" viewBox="0 0 24 24" fill="none" xmlns="http://www.w3.org/2000/svg">
<path fill-rule="evenodd" clip-rule="evenodd" d="M12 22C17.5228 22 22 17.5228 22 12C22 6.47715 17.5228 2 12 2C6.47715 2 2 6.47715 2 12C2 17.5228 6.47715 22 12 22ZM16.7719 9.492C16.7767 9.6011 16.7791 9.70938 16.7791 9.81765C16.7791 13.1545 14.303 17 9.77385 17C8.38256 17 7.08887 16.5825 6 15.8656C6.19281 15.8893 6.38883 15.9 6.58804 15.9C7.74252 15.9 8.80339 15.4973 9.64504 14.8189C8.56737 14.7984 7.65771 14.0683 7.34489 13.066C7.4953 13.0955 7.64971 13.1111 7.80812 13.1111C8.03294 13.1111 8.25135 13.0799 8.45696 13.0225C7.33049 12.7912 6.48163 11.7707 6.48163 10.5477V10.5157C6.81365 10.7052 7.19288 10.8184 7.59691 10.8315C6.93686 10.3795 6.50163 9.60602 6.50163 8.73078C6.50163 8.26733 6.62244 7.8334 6.83446 7.46182C8.04894 8.98917 9.86346 9.99483 11.9092 10.0998C11.8676 9.91527 11.846 9.7225 11.846 9.52481C11.846 8.13116 12.9485 7 14.3078 7C15.0158 7 15.6558 7.30678 16.1047 7.79731C16.6655 7.68329 17.1927 7.47412 17.6688 7.18456C17.4848 7.77434 17.0943 8.26815 16.5855 8.58149C17.0831 8.52079 17.5576 8.38545 18 8.18448C17.6712 8.69141 17.2544 9.13518 16.7719 9.492Z" fill="#627282"/>
</svg>
