<svg width="3380" height="882" viewBox="0 0 3380 882" fill="none" xmlns="http://www.w3.org/2000/svg">
<g id="znamylekar-zona-lekare-logo-primary-dark">
<g id="sub-brand">
<path d="M1109.58 770.109H1278.78V802H1063.47V772.75L1225.56 538.344H1066.11V506.25H1272.28V534.891L1109.58 770.109Z" fill="#627282"/>
<path d="M1309.05 690.078C1309.05 668.547 1313.24 649.182 1321.64 631.984C1330.17 614.786 1341.95 601.516 1356.98 592.172C1372.15 582.828 1389.42 578.156 1408.78 578.156C1438.71 578.156 1462.88 588.516 1481.3 609.234C1499.85 629.953 1509.12 657.51 1509.12 691.906V694.547C1509.12 715.943 1504.99 735.172 1496.73 752.234C1488.61 769.161 1476.9 782.365 1461.59 791.844C1446.43 801.323 1428.96 806.062 1409.19 806.062C1379.4 806.062 1355.22 795.703 1336.67 774.984C1318.26 754.266 1309.05 726.844 1309.05 692.719V690.078ZM1346.83 694.547C1346.83 718.922 1352.45 738.49 1363.69 753.25C1375.06 768.01 1390.23 775.391 1409.19 775.391C1428.28 775.391 1443.45 767.943 1454.69 753.047C1465.93 738.016 1471.55 717.026 1471.55 690.078C1471.55 665.974 1465.79 646.474 1454.28 631.578C1442.91 616.547 1427.74 609.031 1408.78 609.031C1390.23 609.031 1375.27 616.411 1363.89 631.172C1352.52 645.932 1346.83 667.057 1346.83 694.547ZM1425.84 490H1471.34L1416.91 549.719H1386.64L1425.84 490Z" fill="#627282"/>
<path d="M1591.8 582.219L1593.02 609.844C1609.81 588.719 1631.74 578.156 1658.83 578.156C1705.28 578.156 1728.7 604.359 1729.11 656.766V802H1691.53V656.562C1691.4 640.719 1687.74 629.005 1680.56 621.422C1673.52 613.839 1662.48 610.047 1647.45 610.047C1635.27 610.047 1624.57 613.297 1615.36 619.797C1606.15 626.297 1598.97 634.828 1593.83 645.391V802H1556.25V582.219H1591.8Z" fill="#627282"/>
<path d="M1921.47 802C1919.3 797.667 1917.54 789.948 1916.19 778.844C1898.72 796.99 1877.86 806.062 1853.62 806.062C1831.96 806.062 1814.15 799.969 1800.2 787.781C1786.39 775.458 1779.48 759.885 1779.48 741.062C1779.48 718.177 1788.15 700.438 1805.48 687.844C1822.95 675.115 1847.46 668.75 1879.02 668.75H1915.58V651.484C1915.58 638.349 1911.65 627.922 1903.8 620.203C1895.94 612.349 1884.36 608.422 1869.06 608.422C1855.66 608.422 1844.42 611.807 1835.34 618.578C1826.27 625.349 1821.73 633.542 1821.73 643.156H1783.95C1783.95 632.188 1787.81 621.625 1795.53 611.469C1803.39 601.177 1813.95 593.052 1827.22 587.094C1840.62 581.135 1855.32 578.156 1871.3 578.156C1896.62 578.156 1916.46 584.521 1930.81 597.25C1945.17 609.844 1952.61 627.245 1953.16 649.453V750.609C1953.16 770.786 1955.73 786.833 1960.88 798.75V802H1921.47ZM1859.11 773.359C1870.89 773.359 1882.06 770.312 1892.62 764.219C1903.19 758.125 1910.84 750.203 1915.58 740.453V695.359H1886.12C1840.08 695.359 1817.06 708.833 1817.06 735.781C1817.06 747.562 1820.99 756.771 1828.84 763.406C1836.7 770.042 1846.79 773.359 1859.11 773.359Z" fill="#627282"/>
<path d="M2160.34 770.109H2300.5V802H2121.14V506.25H2160.34V770.109Z" fill="#627282"/>
<path d="M2430.3 806.062C2400.51 806.062 2376.27 796.312 2357.58 776.812C2338.89 757.177 2329.55 730.974 2329.55 698.203V691.297C2329.55 669.495 2333.68 650.062 2341.94 633C2350.33 615.802 2361.98 602.396 2376.88 592.781C2391.91 583.031 2408.16 578.156 2425.62 578.156C2454.2 578.156 2476.41 587.568 2492.25 606.391C2508.09 625.214 2516.02 652.161 2516.02 687.234V702.875H2367.12C2367.67 724.542 2373.96 742.078 2386.02 755.484C2398.2 768.755 2413.64 775.391 2432.33 775.391C2445.6 775.391 2456.84 772.682 2466.05 767.266C2475.26 761.849 2483.31 754.672 2490.22 745.734L2513.17 763.609C2494.76 791.911 2467.13 806.062 2430.3 806.062ZM2425.62 609.031C2410.46 609.031 2397.73 614.583 2387.44 625.688C2377.15 636.656 2370.78 652.094 2368.34 672H2478.44V669.156C2477.35 650.062 2472.21 635.302 2463 624.875C2453.79 614.312 2441.33 609.031 2425.62 609.031ZM2443.91 490H2489.41L2434.97 549.719H2404.7L2443.91 490Z" fill="#627282"/>
<path d="M2621.03 700.234L2597.47 724.812V802H2559.89V490H2597.47V678.703L2617.58 654.531L2686.03 582.219H2731.73L2646.22 674.031L2741.69 802H2697.61L2621.03 700.234Z" fill="#627282"/>
<path d="M2906.22 802C2904.05 797.667 2902.29 789.948 2900.94 778.844C2883.47 796.99 2862.61 806.062 2838.38 806.062C2816.71 806.062 2798.9 799.969 2784.95 787.781C2771.14 775.458 2764.23 759.885 2764.23 741.062C2764.23 718.177 2772.9 700.438 2790.23 687.844C2807.7 675.115 2832.21 668.75 2863.77 668.75H2900.33V651.484C2900.33 638.349 2896.4 627.922 2888.55 620.203C2880.69 612.349 2869.11 608.422 2853.81 608.422C2840.41 608.422 2829.17 611.807 2820.09 618.578C2811.02 625.349 2806.48 633.542 2806.48 643.156H2768.7C2768.7 632.188 2772.56 621.625 2780.28 611.469C2788.14 601.177 2798.7 593.052 2811.97 587.094C2825.38 581.135 2840.07 578.156 2856.05 578.156C2881.37 578.156 2901.21 584.521 2915.56 597.25C2929.92 609.844 2937.36 627.245 2937.91 649.453V750.609C2937.91 770.786 2940.48 786.833 2945.62 798.75V802H2906.22ZM2843.86 773.359C2855.64 773.359 2866.81 770.312 2877.38 764.219C2887.94 758.125 2895.59 750.203 2900.33 740.453V695.359H2870.88C2824.83 695.359 2801.81 708.833 2801.81 735.781C2801.81 747.562 2805.74 756.771 2813.59 763.406C2821.45 770.042 2831.54 773.359 2843.86 773.359Z" fill="#627282"/>
<path d="M3103.05 615.938C3097.36 614.99 3091.2 614.516 3084.56 614.516C3059.92 614.516 3043.19 625.01 3034.39 646V802H2996.81V582.219H3033.38L3033.98 607.609C3046.31 587.974 3063.78 578.156 3086.39 578.156C3093.7 578.156 3099.26 579.104 3103.05 581V615.938ZM3051.05 524.531L3081.52 490H3114.02V492.031L3062.42 547.688H3039.47L2988.48 492.031V490H3020.38L3051.05 524.531Z" fill="#627282"/>
<path d="M3224.92 806.062C3195.13 806.062 3170.89 796.312 3152.2 776.812C3133.52 757.177 3124.17 730.974 3124.17 698.203V691.297C3124.17 669.495 3128.3 650.062 3136.56 633C3144.96 615.802 3156.6 602.396 3171.5 592.781C3186.53 583.031 3202.78 578.156 3220.25 578.156C3248.82 578.156 3271.03 587.568 3286.88 606.391C3302.72 625.214 3310.64 652.161 3310.64 687.234V702.875H3161.75C3162.29 724.542 3168.59 742.078 3180.64 755.484C3192.83 768.755 3208.27 775.391 3226.95 775.391C3240.22 775.391 3251.46 772.682 3260.67 767.266C3269.88 761.849 3277.94 754.672 3284.84 745.734L3307.8 763.609C3289.38 791.911 3261.76 806.062 3224.92 806.062ZM3220.25 609.031C3205.08 609.031 3192.35 614.583 3182.06 625.688C3171.77 636.656 3165.41 652.094 3162.97 672H3273.06V669.156C3271.98 650.062 3266.83 635.302 3257.62 624.875C3248.42 614.312 3235.96 609.031 3220.25 609.031Z" fill="#627282"/>
</g>
<g id="brand">
<path d="M1145 313.047H1294.09V362H1068.83V326.25L1215.08 115.609H1069.03V66.25H1290.84V101.188L1145 313.047Z" fill="#1B2734"/>
<path d="M1382.86 142.219L1384.69 167.609C1400.4 147.974 1421.45 138.156 1447.86 138.156C1471.15 138.156 1488.48 144.995 1499.86 158.672C1511.23 172.349 1517.06 192.797 1517.33 220.016V362H1458.62V221.438C1458.62 208.979 1455.92 199.974 1450.5 194.422C1445.08 188.734 1436.08 185.891 1423.48 185.891C1406.96 185.891 1394.57 192.932 1386.31 207.016V362H1327.61V142.219H1382.86Z" fill="#1B2734"/>
<path d="M1689.38 362C1686.67 356.719 1684.7 350.151 1683.48 342.297C1669.27 358.141 1650.78 366.062 1628.03 366.062C1606.5 366.062 1588.62 359.833 1574.41 347.375C1560.32 334.917 1553.28 319.208 1553.28 300.25C1553.28 276.958 1561.88 259.083 1579.08 246.625C1596.41 234.167 1621.4 227.87 1654.03 227.734H1681.05V215.141C1681.05 204.984 1678.41 196.859 1673.12 190.766C1667.98 184.672 1659.79 181.625 1648.55 181.625C1638.66 181.625 1630.88 183.995 1625.19 188.734C1619.64 193.474 1616.86 199.974 1616.86 208.234H1558.16C1558.16 195.505 1562.08 183.724 1569.94 172.891C1577.79 162.057 1588.9 153.594 1603.25 147.5C1617.6 141.271 1633.72 138.156 1651.59 138.156C1678.68 138.156 1700.14 144.995 1715.98 158.672C1731.96 172.214 1739.95 191.307 1739.95 215.953V311.219C1740.09 332.073 1743 347.849 1748.69 358.547V362H1689.38ZM1640.83 321.172C1649.49 321.172 1657.48 319.276 1664.8 315.484C1672.11 311.557 1677.53 306.344 1681.05 299.844V262.062H1659.11C1629.72 262.062 1614.08 272.219 1612.19 292.531L1611.98 295.984C1611.98 303.297 1614.56 309.323 1619.7 314.062C1624.85 318.802 1631.89 321.172 1640.83 321.172Z" fill="#1B2734"/>
<path d="M1840.09 142.219L1841.92 166.797C1857.49 147.703 1878.55 138.156 1905.09 138.156C1933.4 138.156 1952.83 149.328 1963.39 171.672C1978.83 149.328 2000.83 138.156 2029.41 138.156C2053.24 138.156 2070.98 145.13 2082.62 159.078C2094.27 172.891 2100.09 193.745 2100.09 221.641V362H2041.19V221.844C2041.19 209.385 2038.75 200.312 2033.88 194.625C2029 188.802 2020.4 185.891 2008.08 185.891C1990.47 185.891 1978.29 194.286 1971.52 211.078L1971.72 362H1913.02V222.047C1913.02 209.318 1910.51 200.109 1905.5 194.422C1900.49 188.734 1891.96 185.891 1879.91 185.891C1863.25 185.891 1851.2 192.797 1843.75 206.609V362H1785.05V142.219H1840.09Z" fill="#1B2734"/>
<path d="M2227.45 278.922L2268.08 142.219H2331.05L2242.69 396.125L2237.81 407.703C2224.68 436.411 2203.01 450.766 2172.81 450.766C2164.28 450.766 2155.61 449.479 2146.81 446.906V402.422L2155.75 402.625C2166.85 402.625 2175.11 400.932 2180.53 397.547C2186.08 394.161 2190.42 388.542 2193.53 380.688L2200.44 362.609L2123.45 142.219H2186.62L2227.45 278.922Z" fill="#1B2734"/>
<path d="M2419 313.047H2548.39V362H2358.06V66.25H2419V313.047Z" fill="#1B2734"/>
<path d="M2680.83 366.062C2648.6 366.062 2622.33 356.177 2602.02 336.406C2581.84 316.635 2571.75 290.297 2571.75 257.391V251.703C2571.75 229.63 2576.02 209.927 2584.55 192.594C2593.08 175.125 2605.13 161.719 2620.7 152.375C2636.41 142.896 2654.29 138.156 2674.33 138.156C2704.39 138.156 2728.02 147.635 2745.22 166.594C2762.55 185.552 2771.22 212.432 2771.22 247.234V271.203H2631.27C2633.16 285.557 2638.85 297.068 2648.33 305.734C2657.94 314.401 2670.06 318.734 2684.69 318.734C2707.3 318.734 2724.97 310.542 2737.7 294.156L2766.55 326.453C2757.74 338.911 2745.83 348.661 2730.8 355.703C2715.77 362.609 2699.11 366.062 2680.83 366.062ZM2674.12 185.688C2662.48 185.688 2653 189.615 2645.69 197.469C2638.51 205.323 2633.91 216.562 2631.88 231.188H2713.53V226.516C2713.26 213.516 2709.74 203.495 2702.97 196.453C2696.2 189.276 2686.58 185.688 2674.12 185.688Z" fill="#1B2734"/>
<path d="M2884.56 273.844L2863.44 294.969V362H2804.73V50H2863.44V222.859L2874.81 208.234L2931.08 142.219H3001.56L2922.14 233.828L3008.47 362H2941.03L2884.56 273.844Z" fill="#1B2734"/>
<path d="M3154.31 362C3151.6 356.719 3149.64 350.151 3148.42 342.297C3134.2 358.141 3115.72 366.062 3092.97 366.062C3071.44 366.062 3053.56 359.833 3039.34 347.375C3025.26 334.917 3018.22 319.208 3018.22 300.25C3018.22 276.958 3026.82 259.083 3044.02 246.625C3061.35 234.167 3086.33 227.87 3118.97 227.734H3145.98V215.141C3145.98 204.984 3143.34 196.859 3138.06 190.766C3132.92 184.672 3124.72 181.625 3113.48 181.625C3103.6 181.625 3095.81 183.995 3090.12 188.734C3084.57 193.474 3081.8 199.974 3081.8 208.234H3023.09C3023.09 195.505 3027.02 183.724 3034.88 172.891C3042.73 162.057 3053.83 153.594 3068.19 147.5C3082.54 141.271 3098.66 138.156 3116.53 138.156C3143.61 138.156 3165.08 144.995 3180.92 158.672C3196.9 172.214 3204.89 191.307 3204.89 215.953V311.219C3205.03 332.073 3207.94 347.849 3213.62 358.547V362H3154.31ZM3105.77 321.172C3114.43 321.172 3122.42 319.276 3129.73 315.484C3137.05 311.557 3142.46 306.344 3145.98 299.844V262.062H3124.05C3094.66 262.062 3079.02 272.219 3077.12 292.531L3076.92 295.984C3076.92 303.297 3079.49 309.323 3084.64 314.062C3089.79 318.802 3096.83 321.172 3105.77 321.172Z" fill="#1B2734"/>
<path d="M3373.48 197.266C3365.49 196.182 3358.45 195.641 3352.36 195.641C3330.15 195.641 3315.59 203.156 3308.69 218.188V362H3249.98V142.219H3305.44L3307.06 168.422C3318.84 148.245 3335.16 138.156 3356.02 138.156C3362.52 138.156 3368.61 139.036 3374.3 140.797L3373.48 197.266Z" fill="#1B2734"/>
</g>
<path id="bg-symbol" fill-rule="evenodd" clip-rule="evenodd" d="M40 2H840C862.091 2 880 19.9086 880 42V842C880 864.091 862.091 882 840 882H40C17.9086 882 0 864.091 0 842V42C0 19.9086 17.9086 2 40 2Z" fill="#3D83DF"/>
<path id="symbol" fill-rule="evenodd" clip-rule="evenodd" d="M207.572 322.829L374.389 362.119L388.78 191H491.057L504.051 345.751C445.368 365.883 410.856 381.965 371.315 406.28C342.124 424.186 315.577 445.14 291.824 469.17L176 420.261L207.572 322.829ZM349.542 693.855C417.726 554.757 547.952 451.722 704 420.976L672.289 323.265C482.965 344.649 321.888 459.427 235.685 620.604L349.542 693.855ZM468.828 597.531L551.807 694L634.522 633.885L553.768 500.239C517.296 522.742 481.538 566.36 468.828 597.531Z" fill="white"/>
</g>
</svg>
