<?xml version="1.0" encoding="UTF-8"?>
<svg width="4037px" height="880px" viewBox="0 0 4037 880" version="1.1" xmlns="http://www.w3.org/2000/svg" xmlns:xlink="http://www.w3.org/1999/xlink">
    <!-- Generator: Sketch 51.2 (57519) - http://www.bohemiancoding.com/sketch -->
    <title>Group</title>
    <desc>Created with Sketch.</desc>
    <defs></defs>
    <g id="Znamylekar-Zóna-Pro-Kliniku-logo-outline" stroke="none" stroke-width="1" fill="none" fill-rule="evenodd">
        <g id="znamylekar-zona-pro-kliniku-logo-turquoise-dark-bg" transform="translate(-300.000000, -300.000000)" fill="#FFFFFF">
            <g id="Group" transform="translate(300.000000, 300.000000)">
                <path d="M1114.97813,768.109375 L1284.18125,768.109375 L1284.18125,800 L1068.86875,800 L1068.86875,770.75 L1230.9625,536.34375 L1071.50938,536.34375 L1071.50938,504.25 L1277.68125,504.25 L1277.68125,532.890625 L1114.97813,768.109375 Z M1314.65,688.078125 C1314.65,666.546767 1318.88173,647.182378 1327.34531,629.984375 C1335.8089,612.786372 1347.59003,599.515672 1362.68906,590.171875 C1377.7881,580.828078 1395.01969,576.15625 1414.38438,576.15625 C1444.31161,576.15625 1468.5171,586.515521 1487.00156,607.234375 C1505.48603,627.953229 1514.72813,655.510245 1514.72813,689.90625 L1514.72813,692.546875 C1514.72813,713.942815 1510.63181,733.137936 1502.43906,750.132812 C1494.24631,767.127689 1482.53289,780.364536 1467.29844,789.84375 C1452.06399,799.322964 1434.56156,804.0625 1414.79063,804.0625 C1384.99881,804.0625 1360.86103,793.703229 1342.37656,772.984375 C1323.8921,752.265521 1314.65,724.843921 1314.65,690.71875 L1314.65,688.078125 Z M1352.43125,692.546875 C1352.43125,716.921997 1358.08484,736.48951 1369.39219,751.25 C1380.69954,766.01049 1395.8322,773.390625 1414.79063,773.390625 C1433.88447,773.390625 1449.05099,765.908929 1460.29063,750.945312 C1471.53026,735.981696 1477.15,715.026176 1477.15,688.078125 C1477.15,663.973838 1471.4287,644.440179 1459.98594,629.476562 C1448.54317,614.512946 1433.3428,607.03125 1414.38438,607.03125 C1395.8322,607.03125 1380.86881,614.411385 1369.49375,629.171875 C1358.11869,643.932365 1352.43125,665.057154 1352.43125,692.546875 Z M1431.44688,488.40625 L1476.94688,488.40625 L1422.50938,548.125 L1392.24375,548.125 L1431.44688,488.40625 Z M1597.4,580.21875 L1598.61875,607.84375 C1615.4105,586.718644 1637.34778,576.15625 1664.43125,576.15625 C1710.8794,576.15625 1734.30625,602.359113 1734.7125,654.765625 L1734.7125,800 L1697.13438,800 L1697.13438,654.5625 C1696.99896,638.718671 1693.3766,627.005246 1686.26719,619.421875 C1679.15778,611.838504 1668.08758,608.046875 1653.05625,608.046875 C1640.86869,608.046875 1630.17088,611.296843 1620.9625,617.796875 C1611.75412,624.296907 1604.57711,632.828072 1599.43125,643.390625 L1599.43125,800 L1561.85313,800 L1561.85313,580.21875 L1597.4,580.21875 Z M1927.07188,800 C1924.9052,795.666645 1923.1448,787.947972 1921.79063,776.84375 C1904.32179,794.989674 1883.46783,804.0625 1859.22813,804.0625 C1837.56135,804.0625 1819.78809,797.934957 1805.90781,785.679688 C1792.02753,773.424418 1785.0875,757.885511 1785.0875,739.0625 C1785.0875,716.176969 1793.78793,698.403709 1811.18906,685.742188 C1828.59019,673.080666 1853.06651,666.75 1884.61875,666.75 L1921.18125,666.75 L1921.18125,649.484375 C1921.18125,636.348893 1917.25421,625.88806 1909.4,618.101562 C1901.54579,610.315065 1889.96778,606.421875 1874.66563,606.421875 C1861.25931,606.421875 1850.01984,609.807258 1840.94688,616.578125 C1831.87391,623.348992 1827.3375,631.541619 1827.3375,641.15625 L1789.55625,641.15625 C1789.55625,630.187445 1793.44944,619.591197 1801.23594,609.367188 C1809.02243,599.143178 1819.58483,591.052113 1832.92344,585.09375 C1846.26205,579.135387 1860.92075,576.15625 1876.9,576.15625 C1902.22304,576.15625 1922.06139,582.486916 1936.41563,595.148438 C1950.76986,607.809959 1958.21771,625.244681 1958.75938,647.453125 L1958.75938,748.609375 C1958.75938,768.786559 1961.33227,784.833274 1966.47813,796.75 L1966.47813,800 L1927.07188,800 Z M1864.7125,771.359375 C1876.49381,771.359375 1887.66557,768.31253 1898.22813,762.21875 C1908.79068,756.12497 1916.44164,748.203174 1921.18125,738.453125 L1921.18125,693.359375 L1891.72813,693.359375 C1845.68623,693.359375 1822.66563,706.833199 1822.66563,733.78125 C1822.66563,745.562559 1826.59267,754.7708 1834.44688,761.40625 C1842.30108,768.0417 1852.38952,771.359375 1864.7125,771.359375 Z M2165.54063,684.21875 L2165.54063,800 L2126.54063,800 L2126.54063,504.25 L2235.61875,504.25 C2267.9835,504.25 2293.34001,512.510334 2311.68906,529.03125 C2330.03811,545.552166 2339.2125,567.421739 2339.2125,594.640625 C2339.2125,623.349102 2330.24124,645.455652 2312.29844,660.960938 C2294.35564,676.466223 2268.66058,684.21875 2235.2125,684.21875 L2165.54063,684.21875 Z M2165.54063,652.328125 L2235.61875,652.328125 C2256.47302,652.328125 2272.45203,647.41932 2283.55625,637.601562 C2294.66047,627.783805 2300.2125,613.599051 2300.2125,595.046875 C2300.2125,577.44262 2294.66047,563.359428 2283.55625,552.796875 C2272.45203,542.234322 2257.21781,536.750002 2237.85313,536.34375 L2165.54063,536.34375 L2165.54063,652.328125 Z M2489.32188,613.9375 C2483.63435,612.989579 2477.47295,612.515625 2470.8375,612.515625 C2446.19154,612.515625 2429.46775,623.010312 2420.66563,644 L2420.66563,800 L2383.0875,800 L2383.0875,580.21875 L2419.65,580.21875 L2420.25938,605.609375 C2432.58235,585.97386 2450.05093,576.15625 2472.66563,576.15625 C2479.97816,576.15625 2485.53019,577.104157 2489.32188,579 L2489.32188,613.9375 Z M2509.8375,688.078125 C2509.8375,666.546767 2514.06923,647.182378 2522.53281,629.984375 C2530.9964,612.786372 2542.77753,599.515672 2557.87656,590.171875 C2572.9756,580.828078 2590.20719,576.15625 2609.57188,576.15625 C2639.49911,576.15625 2663.7046,586.515521 2682.18906,607.234375 C2700.67353,627.953229 2709.91563,655.510245 2709.91563,689.90625 L2709.91563,692.546875 C2709.91563,713.942815 2705.81931,733.137936 2697.62656,750.132812 C2689.43381,767.127689 2677.72039,780.364536 2662.48594,789.84375 C2647.25149,799.322964 2629.74906,804.0625 2609.97813,804.0625 C2580.18631,804.0625 2556.04853,793.703229 2537.56406,772.984375 C2519.0796,752.265521 2509.8375,724.843921 2509.8375,690.71875 L2509.8375,688.078125 Z M2547.61875,692.546875 C2547.61875,716.921997 2553.27234,736.48951 2564.57969,751.25 C2575.88704,766.01049 2591.0197,773.390625 2609.97813,773.390625 C2629.07197,773.390625 2644.23849,765.908929 2655.47813,750.945312 C2666.71776,735.981696 2672.3375,715.026176 2672.3375,688.078125 C2672.3375,663.973838 2666.6162,644.440179 2655.17344,629.476562 C2643.73067,614.512946 2628.5303,607.03125 2609.57188,607.03125 C2591.0197,607.03125 2576.05631,614.411385 2564.68125,629.171875 C2553.30619,643.932365 2547.61875,665.057154 2547.61875,692.546875 Z M2941.07188,662.484375 L2904.91563,700.0625 L2904.91563,800 L2865.91563,800 L2865.91563,504.25 L2904.91563,504.25 L2904.91563,650.5 L3036.3375,504.25 L3083.4625,504.25 L2967.07188,634.859375 L3092.60313,800 L3045.88438,800 L2941.07188,662.484375 Z M3161.66563,800 L3124.0875,800 L3124.0875,488 L3161.66563,488 L3161.66563,800 Z M3262.61875,800 L3225.04063,800 L3225.04063,580.21875 L3262.61875,580.21875 L3262.61875,800 Z M3221.99375,521.921875 C3221.99375,515.828095 3223.85571,510.682313 3227.57969,506.484375 C3231.30366,502.286437 3236.82184,500.1875 3244.13438,500.1875 C3251.44691,500.1875 3256.99894,502.286437 3260.79063,506.484375 C3264.58231,510.682313 3266.47813,515.828095 3266.47813,521.921875 C3266.47813,528.015655 3264.58231,533.09373 3260.79063,537.15625 C3256.99894,541.21877 3251.44691,543.25 3244.13438,543.25 C3236.82184,543.25 3231.30366,541.21877 3227.57969,537.15625 C3223.85571,533.09373 3221.99375,528.015655 3221.99375,521.921875 Z M3358.29063,580.21875 L3359.50938,607.84375 C3376.30113,586.718644 3398.23841,576.15625 3425.32188,576.15625 C3471.77002,576.15625 3495.19687,602.359113 3495.60313,654.765625 L3495.60313,800 L3458.025,800 L3458.025,654.5625 C3457.88958,638.718671 3454.26722,627.005246 3447.15781,619.421875 C3440.0484,611.838504 3428.9782,608.046875 3413.94688,608.046875 C3401.75931,608.046875 3391.0615,611.296843 3381.85313,617.796875 C3372.64475,624.296907 3365.46773,632.828072 3360.32188,643.390625 L3360.32188,800 L3322.74375,800 L3322.74375,580.21875 L3358.29063,580.21875 Z M3593.10313,800 L3555.525,800 L3555.525,580.21875 L3593.10313,580.21875 L3593.10313,800 Z M3552.47813,521.921875 C3552.47813,515.828095 3554.34009,510.682313 3558.06406,506.484375 C3561.78804,502.286437 3567.30621,500.1875 3574.61875,500.1875 C3581.93129,500.1875 3587.48331,502.286437 3591.275,506.484375 C3595.06669,510.682313 3596.9625,515.828095 3596.9625,521.921875 C3596.9625,528.015655 3595.06669,533.09373 3591.275,537.15625 C3587.48331,541.21877 3581.93129,543.25 3574.61875,543.25 C3567.30621,543.25 3561.78804,541.21877 3558.06406,537.15625 C3554.34009,533.09373 3552.47813,528.015655 3552.47813,521.921875 Z M3714.57188,698.234375 L3691.00938,722.8125 L3691.00938,800 L3653.43125,800 L3653.43125,488 L3691.00938,488 L3691.00938,676.703125 L3711.11875,652.53125 L3779.57188,580.21875 L3825.275,580.21875 L3739.75938,672.03125 L3835.22812,800 L3791.15,800 L3714.57188,698.234375 Z M3999.75938,778.265625 C3985.1343,795.463628 3963.67097,804.0625 3935.36875,804.0625 C3911.94155,804.0625 3894.10058,797.257881 3881.84531,783.648438 C3869.59004,770.038994 3863.39479,749.895967 3863.25938,723.21875 L3863.25938,580.21875 L3900.8375,580.21875 L3900.8375,722.203125 C3900.8375,755.515792 3914.37903,772.171875 3941.4625,772.171875 C3970.17098,772.171875 3989.26454,761.474065 3998.74375,740.078125 L3998.74375,580.21875 L4036.32188,580.21875 L4036.32188,800 L4000.57188,800 L3999.75938,778.265625 Z" id="Zóna-Pro-Kliniku" opacity="0.75"></path>
                <path d="M1145,311.046875 L1294.09375,311.046875 L1294.09375,360 L1068.82812,360 L1068.82812,324.25 L1215.07812,113.609375 L1069.03125,113.609375 L1069.03125,64.25 L1290.84375,64.25 L1290.84375,99.1875 L1145,311.046875 Z M1382.65625,140.21875 L1384.48438,165.609375 C1400.19279,145.97386 1421.24987,136.15625 1447.65625,136.15625 C1470.94803,136.15625 1488.28119,142.994723 1499.65625,156.671875 C1511.03131,170.349027 1516.85417,190.796739 1517.125,218.015625 L1517.125,360 L1458.42188,360 L1458.42188,219.4375 C1458.42188,206.979104 1455.71357,197.940132 1450.29688,192.320312 C1444.88018,186.700493 1435.87506,183.890625 1423.28125,183.890625 C1406.76033,183.890625 1394.36983,190.932221 1386.10938,205.015625 L1386.10938,360 L1327.40625,360 L1327.40625,140.21875 L1382.65625,140.21875 Z M1688.96875,360 C1686.2604,354.718724 1684.29688,348.151081 1683.07812,340.296875 C1668.8593,356.140704 1650.37511,364.0625 1627.625,364.0625 C1606.09364,364.0625 1588.25267,357.833396 1574.10156,345.375 C1559.95045,332.916604 1552.875,317.208428 1552.875,298.25 C1552.875,274.958217 1561.50773,257.083396 1578.77344,244.625 C1596.03915,232.166604 1620.98942,225.869792 1653.625,225.734375 L1680.64062,225.734375 L1680.64062,213.140625 C1680.64062,202.984324 1678.03388,194.859405 1672.82031,188.765625 C1667.60674,182.671845 1659.38026,179.625 1648.14062,179.625 C1638.25516,179.625 1630.50263,181.994768 1624.88281,186.734375 C1619.26299,191.473982 1616.45312,197.973917 1616.45312,206.234375 L1557.75,206.234375 C1557.75,193.505145 1561.67704,181.724013 1569.53125,170.890625 C1577.38546,160.057238 1588.48951,151.559927 1602.84375,145.398438 C1617.19799,139.236948 1633.31241,136.15625 1651.1875,136.15625 C1678.27097,136.15625 1699.76815,142.960869 1715.67969,156.570312 C1731.59123,170.179756 1739.54688,189.307168 1739.54688,213.953125 L1739.54688,309.21875 C1739.68229,330.073021 1742.59372,345.848905 1748.28125,356.546875 L1748.28125,360 L1688.96875,360 Z M1640.42188,319.171875 C1649.08858,319.171875 1657.07809,317.242207 1664.39062,313.382812 C1671.70316,309.523418 1677.11977,304.343782 1680.64062,297.84375 L1680.64062,260.0625 L1658.70312,260.0625 C1629.31756,260.0625 1613.67709,270.218648 1611.78125,290.53125 L1611.57812,293.984375 C1611.57812,301.296912 1614.15102,307.322893 1619.29688,312.0625 C1624.44273,316.802107 1631.48433,319.171875 1640.42188,319.171875 Z M1839.6875,140.21875 L1841.51562,164.796875 C1857.08862,145.70303 1878.1457,136.15625 1904.6875,136.15625 C1932.98972,136.15625 1952.42182,147.328013 1962.98438,169.671875 C1978.42195,147.328013 2000.42694,136.15625 2029,136.15625 C2052.83345,136.15625 2070.57286,143.096285 2082.21875,156.976562 C2093.86464,170.85684 2099.6875,191.744652 2099.6875,219.640625 L2099.6875,360 L2040.78125,360 L2040.78125,219.84375 C2040.78125,207.385354 2038.34377,198.278675 2033.46875,192.523438 C2028.59373,186.7682 2019.99485,183.890625 2007.67188,183.890625 C1990.06762,183.890625 1977.88024,192.286374 1971.10938,209.078125 L1971.3125,360 L1912.60938,360 L1912.60938,220.046875 C1912.60938,207.317645 1910.10419,198.109403 1905.09375,192.421875 C1900.08331,186.734347 1891.55214,183.890625 1879.5,183.890625 C1862.84367,183.890625 1850.7917,190.796806 1843.34375,204.609375 L1843.34375,360 L1784.64062,360 L1784.64062,140.21875 L1839.6875,140.21875 Z M2226.84375,276.921875 L2267.46875,140.21875 L2330.4375,140.21875 L2242.07812,394.125 L2237.20312,405.703125 C2224.06764,434.411602 2202.40119,448.765625 2172.20312,448.765625 C2163.67183,448.765625 2155.00525,447.47918 2146.20312,444.90625 L2146.20312,400.421875 L2155.14062,400.625 C2166.24485,400.625 2174.53904,398.932309 2180.02344,395.546875 C2185.50784,392.161441 2189.80728,386.541706 2192.92188,378.6875 L2199.82812,360.609375 L2122.84375,140.21875 L2186.01562,140.21875 L2226.84375,276.921875 Z M2418.39062,311.046875 L2547.78125,311.046875 L2547.78125,360 L2357.45312,360 L2357.45312,64.25 L2418.39062,64.25 L2418.39062,311.046875 Z M2680.01562,364.0625 C2647.7863,364.0625 2621.54958,354.177182 2601.30469,334.40625 C2581.05979,314.635318 2570.9375,288.29704 2570.9375,255.390625 L2570.9375,249.703125 C2570.9375,227.630098 2575.20308,207.893316 2583.73438,190.492188 C2592.26567,173.091059 2604.35148,159.684943 2619.99219,150.273438 C2635.63289,140.861932 2653.47386,136.15625 2673.51562,136.15625 C2703.57828,136.15625 2727.2421,145.635322 2744.50781,164.59375 C2761.77352,183.552178 2770.40625,210.432118 2770.40625,245.234375 L2770.40625,269.203125 L2630.45312,269.203125 C2632.34897,283.557363 2638.07026,295.067665 2647.61719,303.734375 C2657.16411,312.401085 2669.24993,316.734375 2683.875,316.734375 C2706.4897,316.734375 2724.16139,308.541749 2736.89062,292.15625 L2765.73438,324.453125 C2756.93225,336.911521 2745.0157,346.627569 2729.98438,353.601562 C2714.95305,360.575556 2698.29697,364.0625 2680.01562,364.0625 Z M2673.3125,183.6875 C2661.66661,183.6875 2652.22139,187.614544 2644.97656,195.46875 C2637.73173,203.322956 2633.09376,214.562427 2631.0625,229.1875 L2712.71875,229.1875 L2712.71875,224.515625 C2712.44792,211.51556 2708.92712,201.460973 2702.15625,194.351562 C2695.38538,187.242152 2685.7709,183.6875 2673.3125,183.6875 Z M2883.54688,271.84375 L2862.42188,292.96875 L2862.42188,360 L2803.71875,360 L2803.71875,48 L2862.42188,48 L2862.42188,220.859375 L2873.79688,206.234375 L2930.0625,140.21875 L3000.54688,140.21875 L2921.125,231.828125 L3007.45312,360 L2940.01562,360 L2883.54688,271.84375 Z M3153.29688,360 C3150.58853,354.718724 3148.62501,348.151081 3147.40625,340.296875 C3133.18743,356.140704 3114.70324,364.0625 3091.95312,364.0625 C3070.42177,364.0625 3052.5808,357.833396 3038.42969,345.375 C3024.27858,332.916604 3017.20312,317.208428 3017.20312,298.25 C3017.20312,274.958217 3025.83585,257.083396 3043.10156,244.625 C3060.36727,232.166604 3085.31755,225.869792 3117.95312,225.734375 L3144.96875,225.734375 L3144.96875,213.140625 C3144.96875,202.984324 3142.36201,194.859405 3137.14844,188.765625 C3131.93487,182.671845 3123.70839,179.625 3112.46875,179.625 C3102.58328,179.625 3094.83076,181.994768 3089.21094,186.734375 C3083.59112,191.473982 3080.78125,197.973917 3080.78125,206.234375 L3022.07812,206.234375 C3022.07812,193.505145 3026.00517,181.724013 3033.85938,170.890625 C3041.71358,160.057238 3052.81764,151.559927 3067.17188,145.398438 C3081.52611,139.236948 3097.64054,136.15625 3115.51562,136.15625 C3142.59909,136.15625 3164.09627,142.960869 3180.00781,156.570312 C3195.91935,170.179756 3203.875,189.307168 3203.875,213.953125 L3203.875,309.21875 C3204.01042,330.073021 3206.92185,345.848905 3212.60938,356.546875 L3212.60938,360 L3153.29688,360 Z M3104.75,319.171875 C3113.41671,319.171875 3121.40621,317.242207 3128.71875,313.382812 C3136.03129,309.523418 3141.4479,304.343782 3144.96875,297.84375 L3144.96875,260.0625 L3123.03125,260.0625 C3093.64569,260.0625 3078.00522,270.218648 3076.10938,290.53125 L3075.90625,293.984375 C3075.90625,301.296912 3078.47914,307.322893 3083.625,312.0625 C3088.77086,316.802107 3095.81246,319.171875 3104.75,319.171875 Z M3372.46875,195.265625 C3364.47913,194.182286 3357.43753,193.640625 3351.34375,193.640625 C3329.13531,193.640625 3314.57816,201.156175 3307.67188,216.1875 L3307.67188,360 L3248.96875,360 L3248.96875,140.21875 L3304.42188,140.21875 L3306.04688,166.421875 C3317.82818,146.244691 3334.14573,136.15625 3355,136.15625 C3361.50003,136.15625 3367.59372,137.03645 3373.28125,138.796875 L3372.46875,195.265625 Z" id="ZnamyLekar"></path>
                <path d="M40,0 L840,0 C862.09139,5.68434189e-14 880,17.90861 880,40 L880,840 C880,862.09139 862.09139,880 840,880 L40,880 C17.90861,880 0,862.09139 0,840 L0,40 C0,17.90861 17.90861,0 40,0 Z M468.828173,595.530645 L551.806808,692 L634.522122,631.884767 L553.768288,498.238604 C517.29552,520.741488 481.537484,564.359983 468.828173,595.530645 Z M349.54188,691.855218 C417.726125,552.756743 547.952229,449.72203 704,418.976154 L672.288522,321.264704 C482.965464,342.649166 321.887708,457.427319 235.684723,618.603893 L349.54188,691.855218 Z M374.388854,360.118709 L207.571756,320.828726 L176,418.26057 L291.82401,467.170065 C315.576718,443.140103 342.123863,422.185805 371.314974,404.280284 C410.856248,379.965339 445.367536,363.882632 504.050697,343.751019 L491.056569,189 L388.780201,189 L374.388854,360.118709 Z" id="Symbol-+-bg"></path>
            </g>
        </g>
    </g>
</svg>