<svg width="32" height="32" viewBox="0 0 32 32" fill="none" xmlns="http://www.w3.org/2000/svg">
<path d="M21.3333 29.3334C22.8 29.3334 24 28.1334 24 26.6667L23.9867 22.4267C23.9867 21.72 23.7067 21.0534 23.2133 20.5467L18.6667 16L23.2133 11.4267C23.7067 10.9334 23.9867 10.2534 23.9867 9.54669L24 5.33335C24 3.86669 22.8 2.66669 21.3333 2.66669H10.6667C9.2 2.66669 8 3.86669 8 5.33335V9.54669C8 10.2534 8.28 10.9334 8.77333 11.44L13.3333 16L8.78667 20.5334C8.28 21.04 8 21.72 8 22.4267V26.6667C8 28.1334 9.2 29.3334 10.6667 29.3334H21.3333ZM10.6667 9.45335V6.66669C10.6667 5.93335 11.2667 5.33335 12 5.33335H20C20.7333 5.33335 21.3333 5.93335 21.3333 6.66669V9.45335C21.3333 9.81335 21.1867 10.1467 20.9467 10.4L16 15.3334L11.0533 10.3867C10.8133 10.1467 10.6667 9.80002 10.6667 9.45335Z" fill="#3D83DF"/>
</svg>
