<svg width="33" height="32" viewBox="0 0 33 32" fill="none" xmlns="http://www.w3.org/2000/svg">
<path fill-rule="evenodd" clip-rule="evenodd" d="M9.83333 2.66663C9.09695 2.66663 8.5 3.26358 8.5 3.99996V5.33329H7.16667C5.69391 5.33329 4.5 6.5272 4.5 7.99996V26.6666C4.5 28.1394 5.69391 29.3333 7.16667 29.3333H25.8333C27.3061 29.3333 28.5 28.1394 28.5 26.6666V7.99996C28.5 6.5272 27.3061 5.33329 25.8333 5.33329H24.5V3.99996C24.5 3.26358 23.903 2.66663 23.1667 2.66663C22.4303 2.66663 21.8333 3.26358 21.8333 3.99996V5.33329H11.1667V3.99996C11.1667 3.26358 10.5697 2.66663 9.83333 2.66663ZM8.5 26.6666C7.76362 26.6666 7.16667 26.0697 7.16667 25.3333L7.16667 12H25.8333V25.3333C25.8333 26.0697 25.2364 26.6666 24.5 26.6666H8.5ZM16.5 13.6666C17.0523 13.6666 17.5 14.1143 17.5 14.6666V17.6666H20.5C21.0523 17.6666 21.5 18.1143 21.5 18.6666C21.5 19.2189 21.0523 19.6666 20.5 19.6666H17.5V22.6666C17.5 23.2189 17.0523 23.6666 16.5 23.6666C15.9477 23.6666 15.5 23.2189 15.5 22.6666V19.6666H12.5C11.9477 19.6666 11.5 19.2189 11.5 18.6666C11.5 18.1143 11.9477 17.6666 12.5 17.6666H15.5V14.6666C15.5 14.1143 15.9477 13.6666 16.5 13.6666Z" fill="#3D83DF"/>
</svg>
