<svg width="20" height="20" viewBox="0 0 20 20" fill="none" xmlns="http://www.w3.org/2000/svg">
<path fill-rule="evenodd" clip-rule="evenodd" d="M16.0757 8.74217C16.0859 8.59584 16.1346 8.45482 16.2168 8.33334C16.2967 8.20715 16.4091 8.10476 16.5421 8.03689C16.6752 7.96901 16.824 7.93814 16.9731 7.94751C17.1222 7.95688 17.266 8.00615 17.3895 8.09015C17.513 8.17415 17.6116 8.2898 17.6751 8.425C18.1764 9.6113 18.3958 10.8976 18.3163 12.183C18.2368 13.4684 17.8604 14.7179 17.2168 15.8333C17.0699 16.0877 16.8585 16.2987 16.6039 16.445C16.3492 16.5914 16.0605 16.6678 15.7668 16.6667H4.22511C3.93426 16.6649 3.64893 16.5871 3.39747 16.4409C3.14602 16.2947 2.93721 16.0852 2.79178 15.8333C1.91261 14.3184 1.53315 12.5649 1.70732 10.822C1.88149 9.07907 2.60042 7.43536 3.76199 6.12432C4.92357 4.81328 6.46872 3.90159 8.17796 3.51875C9.8872 3.13591 11.6736 3.30138 13.2834 3.99167C13.4236 4.04928 13.5454 4.14404 13.6358 4.26574C13.7261 4.38743 13.7816 4.53146 13.7961 4.68232C13.8107 4.83318 13.7839 4.98516 13.7185 5.1219C13.6531 5.25864 13.5517 5.37496 13.4251 5.45834C13.3036 5.54054 13.1626 5.58922 13.0163 5.59946C12.87 5.60971 12.7235 5.58115 12.5918 5.51667C12.0308 5.27829 11.4388 5.12115 10.8334 5.05C9.63711 4.894 8.42085 5.06557 7.31435 5.54641C6.20784 6.02726 5.25257 6.79937 4.55035 7.78042C3.84813 8.76147 3.4253 9.91469 3.32693 11.1171C3.22857 12.3196 3.45835 13.5262 3.99178 14.6083C4.06217 14.7442 4.16862 14.8581 4.29944 14.9375C4.43027 15.0168 4.58042 15.0587 4.73345 15.0583H15.2751C15.4273 15.0595 15.5768 15.0189 15.7076 14.941C15.8383 14.8632 15.9453 14.751 16.0168 14.6167C16.6057 13.3921 16.8063 12.0168 16.5918 10.675C16.5109 10.1561 16.3653 9.64939 16.1584 9.16667C16.094 9.03492 16.0654 8.88849 16.0757 8.74217ZM8.3367 11.6708C8.3367 11.2285 8.51239 10.8043 8.82513 10.4916L14.4873 6.0173C15.2628 5.40443 16.2706 6.41222 15.6578 7.18781L11.1835 12.8499C10.8707 13.1627 10.4466 13.3384 10.0043 13.3384C9.7853 13.3384 9.56845 13.2952 9.36613 13.2114C9.16381 13.1276 8.97998 13.0048 8.82513 12.8499C8.67028 12.6951 8.54744 12.5113 8.46364 12.3089C8.37983 12.1066 8.3367 11.8898 8.3367 11.6708Z" fill="#3D83DF"/>
</svg>
