<svg width="32" height="32" viewBox="0 0 32 32" fill="none" xmlns="http://www.w3.org/2000/svg">
<path d="M1.33337 24V10.6667C1.33337 9.93337 1.93337 9.33337 2.66671 9.33337C3.40004 9.33337 4.00004 9.93337 4.00004 10.6667V23C4.00004 23.5523 4.44776 24 5.00004 24H25.3334C26.0667 24 26.6667 24.6 26.6667 25.3334C26.6667 26.0667 26.0667 26.6667 25.3334 26.6667H4.00004C2.53337 26.6667 1.33337 25.4667 1.33337 24ZM30.6667 9.33337V8.00004C30.6667 6.52728 29.4728 5.33337 28 5.33337H26.6667H10.6667H9.33337C7.86061 5.33337 6.66671 6.52728 6.66671 8.00004V9.33337V18.6667C6.66671 20.1395 7.86061 21.3334 9.33337 21.3334H26.6667H28C29.4728 21.3334 30.6667 20.1395 30.6667 18.6667V17.3334V9.33337ZM18.6667 17.3334C16.4534 17.3334 14.6667 15.5467 14.6667 13.3334C14.6667 11.12 16.4534 9.33337 18.6667 9.33337C20.88 9.33337 22.6667 11.12 22.6667 13.3334C22.6667 15.5467 20.88 17.3334 18.6667 17.3334ZM25.3334 7.33337H28C28.3682 7.33337 28.6667 7.63185 28.6667 8.00004V10.6667H28.3334C26.6734 10.6667 25.3334 9.32671 25.3334 7.66671V7.33337ZM28.6667 16V18.6667C28.6667 19.0349 28.3682 19.3334 28 19.3334H25.3334V19C25.3334 17.34 26.6734 16 28.3334 16H28.6667ZM12 19.3334H9.33337C8.96518 19.3334 8.66671 19.0349 8.66671 18.6667V16H9.00004C10.66 16 12 17.34 12 19V19.3334ZM8.66671 10.6667V8.00004C8.66671 7.63185 8.96518 7.33337 9.33337 7.33337H12V7.66671C12 9.32671 10.66 10.6667 9.00004 10.6667H8.66671Z" fill="#3D83DF"/>
</svg>
