<svg width="32" height="32" viewBox="0 0 32 32" fill="none" xmlns="http://www.w3.org/2000/svg">
<path fill-rule="evenodd" clip-rule="evenodd" d="M21.3266 6.72016L17.745 6.40936L16.3464 3.11631C16.0947 2.5169 15.2363 2.5169 14.9847 3.11631L13.5861 6.41676L10.0119 6.72016C9.36064 6.77196 9.09424 7.58598 9.59005 8.01518L12.3059 10.3684L11.4919 13.8613C11.3439 14.4977 12.0321 15.0009 12.5945 14.6605L15.6655 12.8105L18.7366 14.6679C19.299 15.0083 19.9872 14.5051 19.8392 13.8687L19.0252 10.3684L21.741 8.01518C22.2368 7.58598 21.9778 6.77196 21.3266 6.72016ZM14.66 19.9467L11.0783 19.6359L9.67969 16.3429C9.42808 15.7435 8.56967 15.7435 8.31807 16.3429L6.91944 19.6433L3.34519 19.9467C2.69397 19.9985 2.42757 20.8125 2.92338 21.2417L5.63922 23.595L4.82521 27.0878C4.67721 27.7243 5.36542 28.2275 5.92783 27.8871L8.99888 26.037L12.0699 27.8945C12.6323 28.2349 13.3205 27.7317 13.1725 27.0952L12.3585 23.595L15.0744 21.2417C15.5702 20.8125 15.3112 19.9985 14.66 19.9467ZM25.0783 19.6359L28.66 19.9467C29.3112 19.9985 29.5702 20.8125 29.0744 21.2417L26.3585 23.595L27.1725 27.0952C27.3205 27.7317 26.6323 28.2349 26.0699 27.8945L22.9989 26.037L19.9278 27.8871C19.3654 28.2275 18.6772 27.7243 18.8252 27.0878L19.6392 23.595L16.9234 21.2417C16.4276 20.8125 16.694 19.9985 17.3452 19.9467L20.9194 19.6433L22.3181 16.3429C22.5697 15.7435 23.4281 15.7435 23.6797 16.3429L25.0783 19.6359Z" fill="#3D83DF"/>
</svg>
