<svg width="32" height="32" viewBox="0 0 32 32" fill="none" xmlns="http://www.w3.org/2000/svg">
<path fill-rule="evenodd" clip-rule="evenodd" d="M16 29.3333C23.3638 29.3333 29.3333 23.3638 29.3333 16C29.3333 8.63616 23.3638 2.66663 16 2.66663C8.63616 2.66663 2.66663 8.63616 2.66663 16C2.66663 23.3638 8.63616 29.3333 16 29.3333ZM24.0404 11.3737C24.4309 10.9832 24.4309 10.35 24.0404 9.95952C23.6499 9.569 23.0167 9.569 22.6262 9.95952L12.6666 19.9191L9.37373 16.6262C8.98321 16.2357 8.35004 16.2357 7.95952 16.6262C7.56899 17.0167 7.56899 17.6499 7.95952 18.0404L11.9595 22.0404C12.35 22.4309 12.9832 22.4309 13.3737 22.0404L24.0404 11.3737Z" fill="#3D83DF"/>
</svg>
