<svg width="20" height="20" viewBox="0 0 20 20" fill="none" xmlns="http://www.w3.org/2000/svg">
<path d="M10.0003 16.6667C6.31843 16.6667 3.33366 13.6819 3.33366 10C3.33366 6.31812 6.31843 3.33335 10.0003 3.33335C13.6822 3.33335 16.667 6.31812 16.667 10C16.667 13.6819 13.6822 16.6667 10.0003 16.6667ZM10.0003 18.3334C14.6027 18.3334 18.3337 14.6024 18.3337 10C18.3337 5.39765 14.6027 1.66669 10.0003 1.66669C5.39795 1.66669 1.66699 5.39765 1.66699 10C1.66699 14.6024 5.39795 18.3334 10.0003 18.3334ZM5.83366 10C5.83366 9.53978 6.20676 9.16669 6.66699 9.16669H9.16699V6.66669C9.16699 6.20645 9.54009 5.83335 10.0003 5.83335C10.4606 5.83335 10.8337 6.20645 10.8337 6.66669V9.16669H13.3337C13.7939 9.16669 14.167 9.53978 14.167 10C14.167 10.4603 13.7939 10.8334 13.3337 10.8334H10.8337V13.3334C10.8337 13.7936 10.4606 14.1667 10.0003 14.1667C9.54009 14.1667 9.16699 13.7936 9.16699 13.3334V10.8334H6.66699C6.20676 10.8334 5.83366 10.4603 5.83366 10Z" fill="#3D83DF"/>
</svg>
