<svg width="32" height="32" viewBox="0 0 32 32" fill="none" xmlns="http://www.w3.org/2000/svg">
<path fill-rule="evenodd" clip-rule="evenodd" d="M26.666 16.0001C26.666 21.8911 21.8904 26.6667 15.9993 26.6667C10.1083 26.6667 5.33268 21.8911 5.33268 16.0001C5.33268 10.109 10.1083 5.33341 15.9993 5.33341C21.8904 5.33341 26.666 10.109 26.666 16.0001ZM29.3327 16.0001C29.3327 23.3639 23.3631 29.3334 15.9993 29.3334C8.63555 29.3334 2.66602 23.3639 2.66602 16.0001C2.66602 8.63628 8.63555 2.66675 15.9993 2.66675C23.3631 2.66675 29.3327 8.63628 29.3327 16.0001ZM14.666 11.6667C14.666 11.1145 15.1137 10.6667 15.666 10.6667C16.2183 10.6667 16.666 11.1145 16.666 11.6667V16.6667H21.666C22.2183 16.6667 22.666 17.1145 22.666 17.6667C22.666 18.219 22.2183 18.6667 21.666 18.6667H15.666C15.1137 18.6667 14.666 18.219 14.666 17.6667V11.6667Z" fill="#3D83DF"/>
</svg>
