<svg width="32" height="32" viewBox="0 0 32 32" fill="none" xmlns="http://www.w3.org/2000/svg">
<path fill-rule="evenodd" clip-rule="evenodd" d="M13.334 7.06669C13.334 4.60002 15.2673 2.66669 17.734 2.66669C19.1207 2.66669 20.4673 3.32002 21.334 4.33335C22.2007 3.32002 23.5473 2.66669 24.934 2.66669C27.4007 2.66669 29.334 4.60002 29.334 7.06669C29.334 9.86669 26.0007 13.08 22.2273 16.52C21.7207 16.9867 20.934 16.9867 20.4273 16.52C16.6673 13.08 13.334 9.86669 13.334 7.06669ZM4.00065 14.6667C2.53398 14.6667 1.33398 15.8667 1.33398 17.3334V26.6667C1.33398 28.1334 2.53398 29.3334 4.00065 29.3334C5.46732 29.3334 6.66732 28.1334 6.66732 26.6667V17.3334C6.66732 15.8667 5.46732 14.6667 4.00065 14.6667ZM17.5473 22.6667H26.654C28.134 22.6667 29.334 23.8534 29.334 25.3334L19.494 29.04C18.9607 29.24 18.374 29.2667 17.8273 29.1067L9.33398 26.6934V14.6667H11.4673C11.7873 14.6667 12.1073 14.72 12.4007 14.84L21.6273 18.28C22.2407 18.52 22.654 19.1067 22.654 19.76C22.654 20.6267 21.9473 21.3334 21.0807 21.3334H17.574C17.414 21.3334 17.2407 21.2934 17.094 21.24L15.6007 20.6667C15.254 20.5334 14.8673 20.72 14.7473 21.0667C14.6273 21.4134 14.8007 21.7867 15.1473 21.9067L17.1073 22.5867C17.254 22.64 17.4007 22.6667 17.5473 22.6667Z" fill="#3D83DF"/>
</svg>
