<svg width="212" height="30" viewBox="0 0 212 30" fill="none" xmlns="http://www.w3.org/2000/svg">
<path d="M173 4.5V25.5014H176.085V17.9609H178.422C183.438 17.9609 186.336 16.1848 186.336 10.8877C186.336 5.6529 183.033 4.5 177.986 4.5H173ZM176.085 7.33551H177.456C179.699 7.33551 180.883 7.36667 181.849 8.02102C182.722 8.64421 183.127 9.54783 183.127 11.0746C183.127 14.8761 180.759 15.1254 178.017 15.1254H176.085V7.33551Z" fill="#627282"/>
<path d="M188.509 10.5V25.5014H191.345V17.4536C191.345 14.4536 194.087 13.0551 196.05 13.0239C196.05 12.5565 196.081 10.6246 196.081 10.1572C193.962 10.2507 192.248 11.3254 191.22 12.6341C191.22 12.6341 191.22 12.6341 190.971 10.5H188.509Z" fill="#627282"/>
<path d="M197.5 17.992C197.5 23.1022 199.806 26 204.449 26C209.122 26 211.428 23.1022 211.428 17.992V17.8674C211.428 12.7572 209.122 9.89058 204.449 9.89058C199.806 9.89058 197.5 12.7884 197.5 17.8986V17.992ZM204.48 12.2899C207.222 12.2899 208.468 14.1283 208.468 17.9609C208.468 21.7623 207.222 23.6007 204.48 23.6007C201.738 23.6007 200.46 21.7623 200.46 17.9609C200.46 14.1283 201.738 12.2899 204.48 12.2899Z" fill="#627282"/>
<path fill-rule="evenodd" clip-rule="evenodd" d="M1.87974 7.86255L11.8118 10.2059L12.6686 0H18.758L19.5317 9.22968C16.0377 10.4304 13.983 11.3896 11.6288 12.8398C9.89077 13.9077 8.31019 15.1575 6.89599 16.5907L0 13.6736L1.87974 7.86255ZM41.9151 4.5V25.5H47.1789C54.5138 25.5 57.9272 23.2928 57.9272 15C57.9272 6.70723 54.5138 4.5 47.1789 4.5H41.9151ZM140.041 4.89669L143.456 4.5V25.5H140.041V4.89669ZM148.463 8.38425C149.533 8.38425 150.401 7.51473 150.401 6.44213C150.401 5.36952 149.533 4.5 148.463 4.5C147.393 4.5 146.525 5.36952 146.525 6.44213C146.525 7.51473 147.393 8.38425 148.463 8.38425ZM154.508 10.2097C155.992 10.0867 157.601 10.05 159.155 10.05C162.816 10.05 165 11.468 165 15.4752V25.5H161.93L161.777 23.9995H161.737C160.684 25.1362 159.155 25.8 157.197 25.8C154.602 25.8 152.541 24.1165 152.541 20.7803C152.541 17.6774 155.123 14.7883 161.585 16.1626V15.2594C161.585 13.4716 160.539 12.972 158.478 12.972C157.213 12.972 156.14 13.0579 154.508 13.1978V10.2097ZM161.585 18.5361C158.847 17.8382 156.11 18.6957 156.11 20.8162C156.11 22.2227 157.041 23.0492 158.43 22.9873C159.525 22.9385 160.73 22.4518 161.585 21.6926V18.5361ZM146.74 10.5217L150.155 10.5V25.5H146.74V10.5217ZM126.29 10.2097C127.774 10.0867 129.383 10.05 130.937 10.05C134.598 10.05 136.782 11.468 136.782 15.4752V25.5H133.712L133.559 23.9995H133.519C132.466 25.1362 130.937 25.8 128.979 25.8C126.385 25.8 124.323 24.1165 124.323 20.7803C124.323 17.6774 126.905 14.7883 133.367 16.1626V15.2594C133.367 13.4716 132.321 12.972 130.26 12.972C128.995 12.972 127.922 13.0579 126.29 13.1978V10.2097ZM127.892 20.8162C127.892 18.6957 130.63 17.8382 133.367 18.5361V21.6926C132.512 22.4518 131.307 22.9385 130.212 22.9873C128.823 23.0492 127.892 22.2227 127.892 20.8162ZM115.309 25.5H118.724V17.9947C118.724 16.1117 120.157 14.0364 123.28 13.425V10.275C121.136 10.3935 119.295 11.8095 118.539 12.9151H118.508L118.266 10.5H115.309V25.5ZM98.901 18.0769C98.901 23.0898 101.203 25.95 105.96 25.95C110.687 25.95 112.989 23.0898 112.989 18.0769V17.9231C112.989 12.9102 110.687 10.05 105.96 10.05C101.203 10.05 98.901 12.9102 98.901 17.9231V18.0769ZM105.952 12.9C103.535 12.9 102.419 14.5437 102.419 17.9778C102.419 21.4119 103.535 23.025 105.952 23.025C108.37 23.025 109.455 21.4169 109.455 17.9778C109.455 14.5387 108.37 12.9 105.952 12.9ZM90.2672 20.5864V6.39657L93.6819 6V10.5H97.1795V13.275H93.6819V20.1724C93.6819 22.7905 94.4849 23.1007 95.8353 23.1007C96.384 23.1007 96.8436 22.9967 97.1795 22.9183V25.741C96.5729 25.8723 95.7548 25.95 95.22 25.95C91.3131 25.95 90.2672 24.0388 90.2672 20.5864ZM79.8555 18C79.865 14.7228 81.2816 12.9751 84.102 12.9751C85.2935 12.9751 86.5047 13.1232 87.6041 13.2713V10.5C86.7012 10.3188 85.205 10.125 83.6698 10.125C79.4638 10.125 76.2995 12.4447 76.2868 18C76.2995 23.5553 79.4638 25.875 83.6698 25.875C85.205 25.875 86.7012 25.6812 87.6041 25.5V22.7287C86.5047 22.8768 85.2935 23.0249 84.102 23.0249C81.2816 23.0249 79.865 21.2772 79.8555 18ZM60.0284 17.9231V18.0769C60.0284 23.0898 62.3304 25.95 67.0876 25.95C71.8142 25.95 74.1162 23.0898 74.1162 18.0769V17.9231C74.1162 12.9102 71.8142 10.05 67.0876 10.05C62.3304 10.05 60.0284 12.9102 60.0284 17.9231ZM67.0797 12.9C64.6621 12.9 63.5463 14.5437 63.5463 17.9778C63.5463 21.4119 64.6621 23.025 67.0797 23.025C69.4973 23.025 70.5821 21.4169 70.5821 17.9778C70.5821 14.5387 69.4973 12.9 67.0797 12.9ZM54.0067 15C54.0067 10.2788 53.0504 7.89614 47.9956 7.89614H45.6527V22.1039H47.9956C53.0504 22.1039 54.0067 19.7212 54.0067 15ZM22.375 30L17.4346 24.2464C18.1912 22.3873 20.3202 19.7858 22.4918 18.4437L27.2997 26.4146L22.375 30ZM10.3324 29.9914C14.392 21.6952 22.1455 15.55 31.4363 13.7163L29.5483 7.88855C18.2763 9.16397 8.68594 16.0096 3.55354 25.6225L10.3324 29.9914Z" fill="#3D83DF"/>
<path fill-rule="evenodd" clip-rule="evenodd" d="M1.87974 7.86255L11.8118 10.2059L12.6686 0H18.758L19.5317 9.22968C16.0377 10.4304 13.983 11.3896 11.6288 12.8398C9.89077 13.9077 8.31019 15.1575 6.89599 16.5907L0 13.6736L1.87974 7.86255ZM22.375 30L17.4346 24.2464C18.1912 22.3873 20.3202 19.7858 22.4918 18.4437L27.2997 26.4146L22.375 30ZM10.3324 29.9914C14.392 21.6952 22.1455 15.55 31.4363 13.7163L29.5483 7.88855C18.2763 9.16397 8.68594 16.0096 3.55354 25.6225L10.3324 29.9914Z" fill="#3D83DF"/>
</svg>
