<svg width="16" height="18" viewBox="0 0 16 18" fill="none" xmlns="http://www.w3.org/2000/svg">
<path d="M11.3333 8.60835C11.0917 8.36669 10.6917 8.36669 10.45 8.60835L6.825 12.2334L5.5 10.9084C5.25833 10.6667 4.85833 10.6667 4.61667 10.9084C4.375 11.15 4.375 11.55 4.61667 11.7917L6.23333 13.4084C6.55833 13.7334 7.08333 13.7334 7.40833 13.4084L11.325 9.49169C11.575 9.25002 11.575 8.85002 11.3333 8.60835ZM13.8333 2.33335H13V1.50002C13 1.04169 12.625 0.666687 12.1667 0.666687C11.7083 0.666687 11.3333 1.04169 11.3333 1.50002V2.33335H4.66667V1.50002C4.66667 1.04169 4.29167 0.666687 3.83333 0.666687C3.375 0.666687 3 1.04169 3 1.50002V2.33335H2.16667C1.24167 2.33335 0.508333 3.08335 0.508333 4.00002L0.5 15.6667C0.5 16.5834 1.24167 17.3334 2.16667 17.3334H13.8333C14.75 17.3334 15.5 16.5834 15.5 15.6667V4.00002C15.5 3.08335 14.75 2.33335 13.8333 2.33335ZM13 15.6667H3C2.54167 15.6667 2.16667 15.2917 2.16667 14.8334V6.50002H13.8333V14.8334C13.8333 15.2917 13.4583 15.6667 13 15.6667Z" fill="#3D83DF"/>
</svg>
